<svg width="42" height="42" viewBox="0 0 42 42" fill="none" xmlns="http://www.w3.org/2000/svg">
<path d="M33.3374 8.5925C30.0649 5.3025 25.7074 3.5 21.0699 3.5C11.5149 3.5 3.7274 11.2875 3.7274 20.8425C3.7274 23.905 4.5324 26.88 6.0374 29.505L3.5874 38.5L12.7749 36.085C15.3124 37.4675 18.1649 38.2025 21.0699 38.2025C30.6249 38.2025 38.4124 30.415 38.4124 20.86C38.4124 16.2225 36.6099 11.865 33.3374 8.5925ZM21.0699 35.2625C18.4799 35.2625 15.9424 34.5625 13.7199 33.25L13.1949 32.935L7.7349 34.37L9.1874 29.05L8.8374 28.5075C7.4024 26.215 6.6324 23.555 6.6324 20.8425C6.6324 12.8975 13.1074 6.4225 21.0524 6.4225C24.9024 6.4225 28.5249 7.9275 31.2374 10.6575C33.9674 13.3875 35.4549 17.01 35.4549 20.86C35.4899 28.805 29.0149 35.2625 21.0699 35.2625ZM28.9799 24.4825C28.5424 24.2725 26.4074 23.2225 26.0224 23.065C25.6199 22.925 25.3399 22.855 25.0424 23.275C24.7449 23.7125 23.9224 24.6925 23.6774 24.9725C23.4324 25.27 23.1699 25.305 22.7324 25.0775C22.2949 24.8675 20.8949 24.395 19.2499 22.925C17.9549 21.77 17.0974 20.3525 16.8349 19.915C16.5899 19.4775 16.7999 19.25 17.0274 19.0225C17.2199 18.83 17.4649 18.515 17.6749 18.27C17.8849 18.025 17.9724 17.8325 18.1124 17.5525C18.2524 17.255 18.1824 17.01 18.0774 16.8C17.9724 16.59 17.0974 14.455 16.7474 13.58C16.3974 12.74 16.0299 12.845 15.7674 12.8275C15.5049 12.8275 15.2249 12.8275 14.9274 12.8275C14.6299 12.8275 14.1749 12.9325 13.7724 13.37C13.3874 13.8075 12.2674 14.8575 12.2674 16.9925C12.2674 19.1275 13.8249 21.1925 14.0349 21.4725C14.2449 21.77 17.0974 26.145 21.4374 28.0175C22.4699 28.4725 23.2749 28.735 23.9049 28.9275C24.9374 29.26 25.8824 29.2075 26.6349 29.1025C27.4749 28.98 29.2074 28.0525 29.5574 27.0375C29.9249 26.0225 29.9249 25.165 29.8024 24.9725C29.6799 24.78 29.4174 24.6925 28.9799 24.4825Z" fill="white"/>
</svg>
