<svg width="649" height="443" viewBox="0 0 649 443" fill="none" xmlns="http://www.w3.org/2000/svg">
<path d="M214.577 91.1443V4H445.96V91.1443" stroke="#AACE45" stroke-width="7.51244"/>
<path d="M445.96 244.398V331.542H214.577V244.398" stroke="#00AA5A" stroke-width="7.51244"/>
<path d="M317.873 250.408L320.623 304.798C321.041 313.057 320.112 321.328 317.873 329.289V329.289H326.888V329.289C325.142 321.308 324.421 313.137 324.742 304.974L326.888 250.408" stroke="#00AA5A" stroke-width="11.3676"/>
<circle cx="329.518" cy="87.388" r="29.2985" fill="#AACE45"/>
<path d="M242.681 114.26C199.552 86.1191 147.705 101.464 147.705 101.464L155.14 129.207C167.17 174.096 197.036 212.112 237.801 234.426C241.615 236.514 245.618 238.236 249.756 239.57L259.385 242.674C273.638 247.269 288.652 249.03 303.581 247.86L329.079 245.862C329.079 245.862 330.074 202.699 303.968 171.545C297.794 164.178 292.715 156.54 289.224 152.045C277.954 137.531 275.61 135.746 242.681 114.26Z" fill="#00AA5A" stroke="#00AA5A" stroke-width="11.3676"/>
<path d="M476.742 189.273C513.235 152.938 509.005 99.0335 509.005 99.0335L480.322 100.538C433.913 102.973 390.519 124.281 360.217 159.516C357.382 162.813 354.865 166.37 352.699 170.141L347.661 178.914C340.204 191.9 335.359 206.22 333.4 221.066L330.053 246.422C330.053 246.422 372.066 256.37 407.967 237.311C416.457 232.804 424.984 229.423 430.106 226.944C446.647 218.937 448.88 217.016 476.742 189.273Z" fill="#00AA5A" stroke="#00AA5A" stroke-width="11.3676"/>
<path d="M50.0098 397.807C50.0098 398.012 50.0098 398.29 50.0098 398.642C50.0391 398.964 50.0391 399.301 50.0098 399.652C50.0098 399.975 49.9805 400.282 49.9219 400.575C49.8926 400.839 49.8193 401.029 49.7021 401.146C49.4385 401.41 49.1602 401.586 48.8672 401.674C48.5742 401.732 48.2666 401.776 47.9443 401.806C47.6514 401.806 47.3438 401.835 47.0215 401.894C46.7285 401.923 46.4355 402.025 46.1426 402.201C46.2012 402.494 46.333 402.685 46.5381 402.772C46.7725 402.831 47.0068 402.89 47.2412 402.948C47.5049 402.978 47.7246 403.065 47.9004 403.212C48.1055 403.329 48.208 403.578 48.208 403.959C48.208 404.574 48.1055 405.087 47.9004 405.497C47.7246 405.878 47.5049 406.229 47.2412 406.552C46.9775 406.845 46.7139 407.152 46.4502 407.475C46.1865 407.797 45.9814 408.207 45.835 408.705C45.6592 409.232 45.4395 409.613 45.1758 409.848C44.9121 410.082 44.6191 410.272 44.2969 410.419C44.0039 410.536 43.6963 410.668 43.374 410.814C43.0518 410.961 42.7441 411.225 42.4512 411.605C42.1289 411.957 41.8652 412.133 41.6602 412.133C41.5723 412.133 41.4697 412.118 41.3525 412.089C41.2354 412.06 41.0889 412.045 40.9131 412.045C40.7666 412.045 40.6201 412.104 40.4736 412.221C40.3564 412.309 40.2979 412.426 40.2979 412.572C40.2979 412.631 40.3271 412.66 40.3857 412.66C40.4443 412.66 40.459 412.675 40.4297 412.704C40.0781 413.026 39.4482 413.407 38.54 413.847C37.6318 414.257 36.5918 414.652 35.4199 415.033C34.248 415.385 33.0176 415.692 31.7285 415.956C30.4688 416.19 29.2676 416.308 28.125 416.308C26.1328 416.308 24.1553 416.249 22.1924 416.132C20.2588 416.044 18.2812 416 16.2598 416H10.415C10.3271 416 10.1953 416.088 10.0195 416.264C9.87305 416.439 9.69727 416.527 9.49219 416.527C9.16992 416.527 8.74512 416.483 8.21777 416.396C7.71973 416.308 7.22168 416.161 6.72363 415.956C6.22559 415.751 5.78613 415.502 5.40527 415.209C5.05371 414.887 4.87793 414.521 4.87793 414.11C4.87793 413.964 4.89258 413.847 4.92188 413.759C4.95117 413.642 4.98047 413.51 5.00977 413.363C5.27344 412.543 5.63965 411.928 6.1084 411.518C6.57715 411.078 7.0752 410.712 7.60254 410.419C8.15918 410.097 8.71582 409.774 9.27246 409.452C9.8584 409.13 10.3711 408.676 10.8105 408.09C11.2793 407.504 11.6602 406.713 11.9531 405.717C12.2461 404.721 12.3926 403.388 12.3926 401.718C12.3926 400.194 12.29 398.686 12.085 397.191C11.9092 395.697 11.8213 394.188 11.8213 392.665C11.8506 389.853 11.9092 387.069 11.9971 384.315C12.1143 381.562 12.1875 378.778 12.2168 375.966L12.2607 369.066C12.2607 368.334 12.2314 367.484 12.1729 366.518C12.1436 365.551 11.9971 364.628 11.7334 363.749C11.499 362.841 11.1035 362.079 10.5469 361.464C10.0195 360.819 9.25781 360.453 8.26172 360.365C7.76367 360.336 7.19238 360.204 6.54785 359.97C5.90332 359.735 5.28809 359.428 4.70215 359.047C4.14551 358.637 3.66211 358.183 3.25195 357.685C2.8418 357.187 2.63672 356.645 2.63672 356.059C2.63672 355.561 2.7832 355.15 3.07617 354.828C3.36914 354.477 3.7207 354.198 4.13086 353.993C4.54102 353.759 4.98047 353.598 5.44922 353.51C5.94727 353.393 6.40137 353.334 6.81152 353.334C7.74902 353.334 8.67188 353.437 9.58008 353.642C10.4883 353.817 11.4258 353.905 12.3926 353.905C13.5938 353.905 14.7949 353.847 15.9961 353.729C17.2266 353.612 18.4424 353.48 19.6436 353.334C20.8447 353.158 22.0459 353.012 23.2471 352.895C24.4775 352.777 25.708 352.719 26.9385 352.719C27.9639 352.719 28.9893 352.763 30.0146 352.851C31.04 352.909 32.0654 352.968 33.0908 353.026C33.2666 353.261 33.5742 353.451 34.0137 353.598C34.4531 353.744 34.9219 353.876 35.4199 353.993C35.9473 354.11 36.46 354.213 36.958 354.301C37.4561 354.359 37.8369 354.418 38.1006 354.477C38.8037 354.623 39.4043 354.784 39.9023 354.96C40.4297 355.106 40.8691 355.326 41.2207 355.619C41.6016 355.883 41.9238 356.234 42.1875 356.674C42.4805 357.113 42.7441 357.685 42.9785 358.388C43.0078 358.476 43.1396 358.607 43.374 358.783C43.6377 358.959 43.9307 359.135 44.2529 359.311C44.5752 359.486 44.8828 359.662 45.1758 359.838C45.4688 360.014 45.6738 360.16 45.791 360.277C46.1719 360.658 46.5527 361.244 46.9336 362.035C47.3438 362.797 47.71 363.617 48.0322 364.496C48.3545 365.375 48.6182 366.239 48.8232 367.089C49.0283 367.938 49.1309 368.627 49.1309 369.154C49.1309 370.238 48.9697 371.322 48.6475 372.406C48.3545 373.49 48.0469 374.545 47.7246 375.57C47.5195 376.186 47.2119 376.771 46.8018 377.328C46.4209 377.885 46.04 378.456 45.6592 379.042C45.2783 379.599 44.9414 380.17 44.6484 380.756C44.3848 381.342 44.2529 381.957 44.2529 382.602C44.2529 383.51 44.4434 384.418 44.8242 385.326C45.2051 386.234 45.6445 387.069 46.1426 387.831C46.3477 388.183 46.582 388.52 46.8457 388.842C47.1387 389.164 47.417 389.486 47.6807 389.809C47.9736 390.102 48.2373 390.424 48.4717 390.775C48.7061 391.098 48.9111 391.464 49.0869 391.874C49.4678 392.812 49.7168 393.793 49.834 394.818C49.9512 395.814 50.0098 396.811 50.0098 397.807ZM41.7041 370.956C41.7041 370.634 41.6602 370.253 41.5723 369.813C41.4844 369.374 41.3818 368.935 41.2646 368.495C41.1475 368.026 41.0303 367.572 40.9131 367.133C40.7959 366.664 40.708 366.254 40.6494 365.902C40.5615 365.463 40.4297 365.111 40.2539 364.848C40.0781 364.555 39.873 364.32 39.6387 364.145C39.4043 363.939 39.1406 363.749 38.8477 363.573C38.5547 363.368 38.2617 363.134 37.9688 362.87C37.2363 362.226 36.5332 361.713 35.8594 361.332C35.1855 360.951 34.4824 360.658 33.75 360.453C33.0176 360.248 32.2412 360.116 31.4209 360.058C30.6006 359.97 29.6924 359.926 28.6963 359.926C28.0518 359.926 27.3779 359.94 26.6748 359.97C26.001 359.999 25.3857 360.087 24.8291 360.233C24.7119 360.292 24.6387 360.365 24.6094 360.453C24.5801 360.541 24.5068 360.629 24.3896 360.717C24.3018 360.805 24.126 360.893 23.8623 360.98C23.5986 361.039 23.1885 361.068 22.6318 361.068C21.7822 361.068 21.0791 361.186 20.5225 361.42C19.9951 361.654 19.5703 361.991 19.248 362.431C18.9551 362.841 18.75 363.354 18.6328 363.969C18.5156 364.555 18.4424 365.229 18.4131 365.99C18.3838 366.957 18.3545 367.953 18.3252 368.979C18.3252 370.004 18.2812 371.029 18.1934 372.055C18.1055 373.051 17.9443 374.032 17.71 374.999C17.5049 375.966 17.168 376.903 16.6992 377.812C18.3398 378.222 20.0098 378.544 21.709 378.778C23.4082 379.013 25.0781 379.13 26.7188 379.13C27.8613 379.13 29.0039 379.086 30.1465 378.998C31.3184 378.91 32.4609 378.764 33.5742 378.559C33.9844 378.471 34.5264 378.31 35.2002 378.075C35.9033 377.841 36.5771 377.548 37.2217 377.196C37.8955 376.845 38.4814 376.449 38.9795 376.01C39.5068 375.57 39.7998 375.116 39.8584 374.647C39.917 374.296 40.0342 373.974 40.21 373.681C40.415 373.388 40.6201 373.109 40.8252 372.846C41.0596 372.553 41.2646 372.26 41.4404 371.967C41.6162 371.674 41.7041 371.337 41.7041 370.956ZM43.1543 400.312C43.1543 399.55 43.0518 398.788 42.8467 398.026C42.6709 397.265 42.5244 396.503 42.4072 395.741C42.3193 395.038 42.2314 394.481 42.1436 394.071C42.085 393.661 41.9678 393.31 41.792 393.017C41.6455 392.694 41.4258 392.387 41.1328 392.094C40.8398 391.801 40.415 391.42 39.8584 390.951C39.7119 390.307 39.5508 389.926 39.375 389.809C39.2285 389.691 39.0674 389.633 38.8916 389.633C38.7451 389.633 38.584 389.647 38.4082 389.677C38.2617 389.677 38.1152 389.677 37.9688 389.677L37.3535 388.446C36.7969 388.065 36.2988 387.772 35.8594 387.567C35.4492 387.362 34.9072 387.23 34.2334 387.172C33.6475 387.113 33.0615 386.996 32.4756 386.82C31.9189 386.645 31.333 386.557 30.7178 386.557C30.4541 386.557 30.249 386.659 30.1025 386.864C29.9561 387.069 29.8389 387.172 29.751 387.172C29.5752 387.172 29.3701 387.143 29.1357 387.084C28.9014 386.996 28.6523 386.923 28.3887 386.864C28.125 386.776 27.8467 386.703 27.5537 386.645C27.29 386.557 27.041 386.513 26.8066 386.513C25.4883 386.513 24.1992 386.659 22.9395 386.952C21.709 387.216 20.4639 387.509 19.2041 387.831C18.9697 388.446 18.7354 389.12 18.501 389.853C18.2959 390.585 18.1055 391.332 17.9297 392.094C17.7539 392.855 17.6074 393.617 17.4902 394.379C17.373 395.111 17.3145 395.8 17.3145 396.444C17.3145 396.767 17.3438 397.03 17.4023 397.235C17.4609 397.411 17.5342 397.572 17.6221 397.719C17.71 397.865 17.7832 398.012 17.8418 398.158C17.9004 398.305 17.9297 398.48 17.9297 398.686C17.9297 399.857 17.7979 401.015 17.5342 402.157C17.2998 403.271 17.1826 404.413 17.1826 405.585C17.1826 406.347 17.2852 407.079 17.4902 407.782C17.6953 408.485 18.0469 409.13 18.5449 409.716C19.1309 409.716 19.6875 409.833 20.2148 410.067C20.7422 410.272 21.2988 410.375 21.8848 410.375C22.2949 410.375 22.6904 410.272 23.0713 410.067C23.4814 409.862 23.8037 409.76 24.0381 409.76C24.2725 409.76 24.4482 409.862 24.5654 410.067C24.7119 410.272 24.9463 410.375 25.2686 410.375H25.4443C25.5322 410.229 25.6934 410.111 25.9277 410.023C26.1621 409.906 26.4258 409.833 26.7188 409.804C27.041 409.745 27.3779 409.716 27.7295 409.716C28.0811 409.687 28.418 409.672 28.7402 409.672C29.3555 409.672 29.8242 409.687 30.1465 409.716C30.498 409.745 30.8936 409.76 31.333 409.76C32.5635 409.496 33.7354 409.174 34.8486 408.793C35.7861 408.471 36.7383 408.061 37.7051 407.562C38.7012 407.064 39.4775 406.479 40.0342 405.805C40.3271 405.512 40.6494 405.146 41.001 404.706C41.3818 404.267 41.7188 403.812 42.0117 403.344C42.334 402.846 42.5977 402.348 42.8027 401.85C43.0371 401.322 43.1543 400.81 43.1543 400.312ZM105.592 357.816C105.592 358.139 105.475 358.432 105.24 358.695C105.035 358.959 104.771 359.223 104.449 359.486C104.156 359.721 103.849 359.94 103.526 360.146C103.204 360.351 102.94 360.541 102.735 360.717C102.237 361.127 101.637 361.332 100.934 361.332C100.465 361.332 100.011 361.273 99.5713 361.156C99.1611 361.039 98.7217 360.98 98.2529 360.98C98.0479 360.98 97.8867 361.024 97.7695 361.112C97.3887 361.347 97.0225 361.479 96.6709 361.508C96.3193 361.537 95.9385 361.552 95.5283 361.552C95.2939 361.552 94.9717 361.449 94.5615 361.244C94.1807 361.01 93.9756 360.775 93.9463 360.541L94.2539 360.233C93.9316 360.351 93.7119 360.482 93.5947 360.629C93.4775 360.775 93.3896 360.937 93.3311 361.112C93.3018 361.288 93.2725 361.479 93.2432 361.684C93.2139 361.889 93.1406 362.094 93.0234 362.299C92.877 362.592 92.6426 362.768 92.3203 362.826C92.0273 362.885 91.7197 363.017 91.3975 363.222C91.1045 363.427 90.8408 363.808 90.6064 364.364C90.3721 364.892 90.2549 365.785 90.2549 367.045C90.2549 367.602 90.2842 368.144 90.3428 368.671C90.4014 369.198 90.4307 369.726 90.4307 370.253C90.4307 371.308 90.3428 372.362 90.167 373.417C89.9912 374.442 89.9033 375.497 89.9033 376.581C89.9033 377.226 89.8008 377.841 89.5957 378.427C89.4199 379.013 89.332 379.628 89.332 380.272C89.332 381.181 89.7129 381.811 90.4746 382.162C90.2695 382.25 90.1084 382.484 89.9912 382.865C89.874 383.217 89.7715 383.627 89.6836 384.096C89.625 384.535 89.5811 384.975 89.5518 385.414C89.5518 385.824 89.5518 386.117 89.5518 386.293C89.5518 386.41 89.5518 386.571 89.5518 386.776C89.5518 386.981 89.5664 387.201 89.5957 387.436C89.625 387.641 89.6543 387.846 89.6836 388.051C89.7129 388.227 89.7715 388.358 89.8594 388.446C90.0938 388.681 90.2109 388.974 90.2109 389.325C90.2109 389.677 90.1523 390.028 90.0352 390.38C89.918 390.702 89.8594 391.039 89.8594 391.391C89.8594 392.826 89.9473 394.262 90.123 395.697C90.3281 397.104 90.4307 398.524 90.4307 399.96C90.4307 400.897 90.3281 401.835 90.123 402.772C89.9473 403.71 89.8594 404.647 89.8594 405.585C89.8594 406.435 90.0059 407.108 90.2988 407.606C90.5918 408.104 90.9873 408.485 91.4854 408.749C91.9834 409.013 92.5547 409.188 93.1992 409.276C93.8438 409.364 94.5176 409.408 95.2207 409.408C96.334 409.408 97.4326 409.32 98.5166 409.145C99.6299 408.939 100.729 408.837 101.812 408.837C102.896 408.837 103.731 409.174 104.317 409.848C104.933 410.521 105.24 411.386 105.24 412.44C105.24 413.231 105.108 413.979 104.845 414.682C104.61 415.355 104.259 415.941 103.79 416.439C103.351 416.967 102.809 417.377 102.164 417.67C101.52 417.963 100.787 418.109 99.9668 418.109C99.3809 418.109 98.7217 418.036 97.9893 417.89C96.8174 417.655 95.6455 417.479 94.4736 417.362C93.3018 417.274 92.1006 417.23 90.8701 417.23C89.8447 417.23 88.8193 417.245 87.7939 417.274C86.7686 417.333 85.7432 417.362 84.7178 417.362C83.4873 417.362 82.2715 417.348 81.0703 417.318C79.8691 417.289 78.6533 417.274 77.4229 417.274C76.9834 417.274 76.5586 417.201 76.1484 417.055C75.7383 416.908 75.3281 416.835 74.918 416.835C74.625 416.835 74.2881 416.879 73.9072 416.967C73.5264 417.084 73.1162 417.201 72.6768 417.318C72.2666 417.436 71.8271 417.538 71.3584 417.626C70.8896 417.743 70.4209 417.802 69.9521 417.802C68.8682 417.802 67.9307 417.553 67.1396 417.055C66.3486 416.586 65.9531 415.751 65.9531 414.55C65.9531 414.169 65.9971 413.803 66.085 413.451C66.1143 413.188 66.2461 412.821 66.4805 412.353C66.7441 411.884 67.0371 411.43 67.3594 410.99C67.7109 410.521 68.0625 410.126 68.4141 409.804C68.7949 409.481 69.1318 409.32 69.4248 409.32C69.6592 409.32 69.8789 409.379 70.084 409.496C70.3184 409.613 70.5674 409.76 70.8311 409.936C71.124 410.082 71.4609 410.214 71.8418 410.331C72.2227 410.448 72.6768 410.507 73.2041 410.507C74.2588 410.507 75.3574 410.404 76.5 410.199C77.6426 409.994 78.6826 409.643 79.6201 409.145C80.5869 408.617 81.3779 407.943 81.9932 407.123C82.6084 406.273 82.916 405.219 82.916 403.959C82.916 403.49 82.8867 403.036 82.8281 402.597C82.7695 402.128 82.7109 401.659 82.6523 401.19C82.4766 399.667 82.374 398.129 82.3447 396.576C82.3154 395.023 82.3008 393.471 82.3008 391.918C82.3008 390.893 82.4326 389.911 82.6963 388.974C82.96 388.007 83.0918 387.011 83.0918 385.985C83.0918 385.399 82.9893 384.843 82.7842 384.315C82.5791 383.788 82.4766 383.246 82.4766 382.689C82.4766 382.426 82.5059 382.162 82.5645 381.898C82.6523 381.635 82.6963 381.356 82.6963 381.063C82.6963 380.419 82.623 379.804 82.4766 379.218C82.3594 378.603 82.3008 377.987 82.3008 377.372C82.3008 376.347 82.4033 375.321 82.6084 374.296C82.8428 373.271 82.96 372.245 82.96 371.22C82.96 370.604 82.8867 369.989 82.7402 369.374C82.5938 368.759 82.4326 368.158 82.2568 367.572C82.1104 366.986 81.9639 366.386 81.8174 365.771C81.6709 365.155 81.5977 364.54 81.5977 363.925C81.5977 363.544 81.6416 363.148 81.7295 362.738C81.5537 362.328 81.3047 362.006 80.9824 361.771C80.6602 361.537 80.3086 361.317 79.9277 361.112C79.5469 360.907 79.166 360.702 78.7852 360.497C78.4336 360.292 78.1553 359.999 77.9502 359.618C77.7158 359.647 77.5693 359.765 77.5107 359.97C77.4521 360.146 77.4082 360.351 77.3789 360.585C77.3496 360.79 77.291 360.995 77.2031 361.2C77.1445 361.376 76.9834 361.479 76.7197 361.508C75.8994 361.596 75.0645 361.669 74.2148 361.728C73.3945 361.786 72.5742 361.815 71.7539 361.815C71.2852 361.815 70.6992 361.786 69.9961 361.728C69.3223 361.669 68.6631 361.537 68.0186 361.332C67.4033 361.127 66.876 360.834 66.4365 360.453C65.9971 360.072 65.7773 359.545 65.7773 358.871C65.7773 358.461 65.8652 358.036 66.041 357.597C66.2461 357.128 66.4805 356.674 66.7441 356.234C67.0371 355.795 67.3447 355.385 67.667 355.004C68.0186 354.594 68.3262 354.242 68.5898 353.949C68.7949 353.744 69.1025 353.568 69.5127 353.422C69.9229 353.275 70.377 353.173 70.875 353.114C71.4023 353.056 71.959 353.012 72.5449 352.982C73.1309 352.953 73.7168 352.938 74.3027 352.938C75.0352 352.938 75.709 352.953 76.3242 352.982C76.9688 352.982 77.4961 352.982 77.9062 352.982C78.6387 352.982 79.5322 352.968 80.5869 352.938C81.6709 352.88 82.6963 352.807 83.6631 352.719C84.6592 352.631 85.5088 352.543 86.2119 352.455C86.9443 352.338 87.3252 352.221 87.3545 352.104C87.5303 352.191 87.7354 352.338 87.9697 352.543C88.2334 352.719 88.4971 352.895 88.7607 353.07C89.0537 353.246 89.332 353.407 89.5957 353.554C89.8594 353.7 90.0645 353.773 90.2109 353.773C90.3867 353.773 90.5186 353.715 90.6064 353.598C90.7236 353.451 90.8115 353.29 90.8701 353.114C90.958 352.938 91.0166 352.763 91.0459 352.587C91.0752 352.382 91.0898 352.221 91.0898 352.104H91.3975C92.042 352.104 92.4668 352.294 92.6719 352.675C92.9062 353.056 93.0234 353.51 93.0234 354.037C93.0234 354.154 93.0088 354.257 92.9795 354.345C92.9795 354.433 92.9795 354.521 92.9795 354.608C93.2725 354.55 93.4775 354.418 93.5947 354.213C93.7412 353.979 93.8584 353.744 93.9463 353.51C94.0342 353.275 94.1367 353.07 94.2539 352.895C94.4004 352.719 94.6348 352.631 94.957 352.631C95.0742 352.631 95.25 352.66 95.4844 352.719H95.792C96.4365 353.246 96.9346 353.656 97.2861 353.949C97.667 354.242 97.96 354.462 98.165 354.608C98.3701 354.726 98.502 354.799 98.5605 354.828C98.6191 354.857 98.6631 354.872 98.6924 354.872C98.751 354.872 98.8535 354.887 99 354.916C99.1758 354.945 99.2637 354.945 99.2637 354.916C99.2637 354.799 99.1904 354.696 99.0439 354.608C98.9268 354.491 98.7803 354.374 98.6045 354.257C98.458 354.14 98.3115 354.008 98.165 353.861C98.0479 353.715 97.9893 353.554 97.9893 353.378C98.3408 353.378 98.6191 353.334 98.8242 353.246C99.0293 353.129 99.2051 353.012 99.3516 352.895C99.498 352.748 99.6445 352.616 99.791 352.499C99.9668 352.382 100.187 352.323 100.45 352.323C100.831 352.323 101.124 352.382 101.329 352.499C101.534 352.616 101.71 352.748 101.856 352.895C102.003 353.012 102.135 353.129 102.252 353.246C102.369 353.363 102.53 353.422 102.735 353.422C102.882 353.422 102.999 353.407 103.087 353.378C103.204 353.349 103.336 353.334 103.482 353.334C103.688 353.334 103.819 353.422 103.878 353.598C103.937 353.773 103.98 353.935 104.01 354.081C104.098 354.521 104.171 354.857 104.229 355.092C104.288 355.326 104.361 355.531 104.449 355.707C104.537 355.883 104.64 356.073 104.757 356.278C104.903 356.454 105.094 356.718 105.328 357.069C105.504 357.304 105.592 357.553 105.592 357.816ZM83.5752 360.717C83.751 360.482 83.707 360.219 83.4434 359.926C83.1797 359.633 82.8867 359.486 82.5645 359.486C82.2129 359.486 81.9785 359.662 81.8613 360.014C81.7734 360.336 81.7295 360.629 81.7295 360.893C81.7881 361.098 81.876 361.259 81.9932 361.376C82.0811 361.493 82.1836 361.596 82.3008 361.684C82.418 361.771 82.5498 361.815 82.6963 361.815C82.9307 361.815 83.1064 361.771 83.2236 361.684C83.3408 361.566 83.4287 361.435 83.4873 361.288C83.5459 361.142 83.5752 360.951 83.5752 360.717ZM168.557 386.425C168.557 387.04 168.498 387.641 168.381 388.227C168.264 388.783 168.132 389.354 167.985 389.94C167.839 390.497 167.707 391.068 167.59 391.654C167.473 392.24 167.414 392.826 167.414 393.412C167.414 393.646 167.429 393.881 167.458 394.115C167.517 394.32 167.546 394.54 167.546 394.774C167.546 395.36 167.443 395.917 167.238 396.444C167.062 396.972 166.843 397.484 166.579 397.982C166.345 398.422 166.198 398.876 166.14 399.345C166.11 399.813 166.081 400.282 166.052 400.751C166.052 401.22 166.008 401.688 165.92 402.157C165.832 402.626 165.656 403.065 165.393 403.476C165.334 403.769 165.246 404.208 165.129 404.794C165.041 405.351 164.924 405.746 164.777 405.98C164.748 406.039 164.66 406.083 164.514 406.112C164.367 406.142 164.206 406.171 164.03 406.2C163.854 406.229 163.664 406.288 163.459 406.376C163.254 406.464 163.078 406.596 162.932 406.771C162.785 406.918 162.668 407.123 162.58 407.387C162.492 407.65 162.39 407.914 162.272 408.178C162.155 408.441 162.009 408.676 161.833 408.881C161.687 409.057 161.481 409.145 161.218 409.145C160.954 409.145 160.72 409.101 160.515 409.013C160.31 408.896 160.104 408.793 159.899 408.705C159.694 408.588 159.489 408.5 159.284 408.441C159.079 408.383 158.83 408.397 158.537 408.485C158.625 408.544 158.654 408.69 158.625 408.925C158.596 409.13 158.596 409.35 158.625 409.584C158.684 409.818 158.815 410.038 159.021 410.243C159.226 410.448 159.592 410.551 160.119 410.551C160.383 410.551 160.632 410.536 160.866 410.507C161.13 410.478 161.394 410.434 161.657 410.375C161.423 411.02 161.145 411.532 160.822 411.913C160.5 412.265 160.134 412.587 159.724 412.88C159.343 413.144 158.933 413.422 158.493 413.715C158.083 413.979 157.673 414.33 157.263 414.77C156.765 415.268 156.281 415.575 155.812 415.692C155.373 415.81 154.846 415.956 154.23 416.132C153.527 416.337 153.029 416.586 152.736 416.879C152.443 417.172 152.121 417.45 151.77 417.714C151.418 417.978 150.935 418.197 150.319 418.373C149.733 418.578 148.796 418.681 147.507 418.681C146.335 418.681 145.163 418.637 143.991 418.549C142.849 418.461 141.706 418.344 140.563 418.197C140.036 418.139 139.597 418.036 139.245 417.89C138.923 417.772 138.615 417.626 138.322 417.45C138.029 417.304 137.736 417.143 137.443 416.967C137.15 416.791 136.784 416.615 136.345 416.439C136.11 416.352 135.832 416.234 135.51 416.088C135.188 415.971 134.851 415.839 134.499 415.692C134.147 415.546 133.825 415.399 133.532 415.253C133.239 415.077 133.005 414.916 132.829 414.77C132.624 414.594 132.478 414.403 132.39 414.198C132.331 413.964 132.272 413.729 132.214 413.495C132.155 413.231 132.082 412.997 131.994 412.792C131.936 412.558 131.804 412.367 131.599 412.221C131.159 412.162 130.734 412.089 130.324 412.001C129.914 411.884 129.504 411.752 129.094 411.605C128.977 411.283 128.859 410.976 128.742 410.683C128.654 410.36 128.552 410.038 128.435 409.716C128.054 409.306 127.688 408.969 127.336 408.705C126.984 408.412 126.677 408.119 126.413 407.826C126.149 407.533 125.915 407.196 125.71 406.815C125.534 406.405 125.417 405.878 125.358 405.233C125.271 404.472 125.095 403.739 124.831 403.036C124.567 402.304 124.289 401.586 123.996 400.883C123.732 400.18 123.483 399.462 123.249 398.729C123.044 397.997 122.941 397.25 122.941 396.488C122.941 395.697 123.103 394.892 123.425 394.071C122.575 392.87 122.048 391.566 121.843 390.16C121.638 388.725 121.535 387.289 121.535 385.854C121.535 385.385 121.535 384.931 121.535 384.491C121.564 384.022 121.579 383.568 121.579 383.129C121.579 382.631 121.462 382.25 121.228 381.986C121.022 381.693 120.92 381.342 120.92 380.932C120.92 380.287 121.008 379.657 121.184 379.042C121.389 378.427 121.521 377.797 121.579 377.152C121.198 377.094 120.949 376.947 120.832 376.713L120.92 376.537C121.125 376.186 121.286 375.863 121.403 375.57C121.55 375.277 121.652 374.999 121.711 374.735C121.77 374.472 121.828 374.193 121.887 373.9C121.945 373.607 122.019 373.271 122.106 372.89C122.341 371.688 122.634 370.517 122.985 369.374C123.366 368.231 123.732 367.074 124.084 365.902C124.465 364.555 124.934 363.368 125.49 362.343C126.047 361.317 126.911 360.365 128.083 359.486C128.581 359.076 129.035 358.637 129.445 358.168C129.855 357.699 130.148 357.143 130.324 356.498C130.471 356.381 130.632 356.308 130.808 356.278C130.983 356.249 131.159 356.234 131.335 356.234H131.687C131.892 356.234 132.082 356.22 132.258 356.19C132.463 356.132 132.653 356.029 132.829 355.883C133.269 355.473 133.649 355.18 133.972 355.004C134.323 354.828 134.792 354.74 135.378 354.74C135.788 354.74 136.184 354.784 136.564 354.872C136.945 354.931 137.341 355.004 137.751 355.092C137.897 354.945 138.103 354.755 138.366 354.521C138.659 354.257 138.908 354.081 139.113 353.993V354.125C139.113 354.242 139.128 354.359 139.157 354.477C139.216 354.564 139.318 354.608 139.465 354.608C139.846 354.608 140.212 354.521 140.563 354.345C140.915 354.169 141.281 354.052 141.662 353.993C142.512 353.847 143.361 353.627 144.211 353.334C145.061 353.012 145.925 352.851 146.804 352.851C147.741 352.851 148.737 352.909 149.792 353.026C150.876 353.144 151.931 353.363 152.956 353.686C153.981 354.008 154.934 354.462 155.812 355.048C156.691 355.604 157.395 356.337 157.922 357.245C158.156 357.655 158.391 357.978 158.625 358.212C158.859 358.417 159.094 358.607 159.328 358.783C159.562 358.93 159.797 359.091 160.031 359.267C160.266 359.413 160.515 359.633 160.778 359.926C161.335 360.57 161.774 361.273 162.097 362.035C162.448 362.768 162.932 363.427 163.547 364.013C164.309 364.716 164.865 365.565 165.217 366.562C165.598 367.558 165.788 368.568 165.788 369.594C165.788 369.916 165.744 370.238 165.656 370.561C165.568 370.883 165.524 371.22 165.524 371.571C165.524 371.864 165.583 372.172 165.7 372.494C165.847 372.816 166.008 373.153 166.184 373.505C166.359 373.856 166.521 374.223 166.667 374.604C166.813 374.984 166.916 375.351 166.975 375.702C167.062 376.493 167.194 377.27 167.37 378.031C167.546 378.764 167.722 379.525 167.897 380.316C168.132 381.312 168.308 382.323 168.425 383.349C168.542 384.374 168.586 385.399 168.557 386.425ZM161.394 386.117C161.394 384.477 161.247 382.851 160.954 381.239C160.69 379.628 160.427 378.017 160.163 376.405C160.046 375.819 159.855 375.263 159.592 374.735C159.357 374.208 159.152 373.666 158.977 373.109C158.625 372.055 158.288 371 157.966 369.945C157.644 368.891 157.321 367.836 156.999 366.781C156.794 366.137 156.384 365.58 155.769 365.111C155.153 364.613 154.436 364.203 153.615 363.881C152.795 363.529 151.901 363.251 150.935 363.046C149.997 362.812 149.089 362.636 148.21 362.519C147.331 362.372 146.511 362.284 145.749 362.255C145.017 362.196 144.46 362.167 144.079 362.167L144.65 362.123L144.167 362.167C143.522 362.167 142.878 362.138 142.233 362.079C141.618 362.021 140.988 361.991 140.344 361.991C139.816 361.991 139.289 362.035 138.762 362.123C138.264 362.182 137.81 362.372 137.399 362.694C136.433 363.456 135.524 364.174 134.675 364.848C133.825 365.492 133.122 366.386 132.565 367.528C132.39 367.909 132.199 368.188 131.994 368.363C131.789 368.51 131.584 368.671 131.379 368.847C131.203 368.993 131.042 369.169 130.896 369.374C130.749 369.579 130.646 369.916 130.588 370.385C130.441 371.234 130.266 372.084 130.061 372.934C129.885 373.754 129.797 374.589 129.797 375.438C129.797 376.347 129.709 377.255 129.533 378.163C129.387 379.042 129.138 379.906 128.786 380.756C128.698 380.99 128.61 381.21 128.522 381.415C128.464 381.62 128.435 381.84 128.435 382.074C128.435 382.514 128.537 382.895 128.742 383.217C128.947 383.51 129.05 383.773 129.05 384.008C129.05 384.125 129.006 384.198 128.918 384.228C128.859 384.228 128.786 384.257 128.698 384.315C128.64 384.345 128.566 384.433 128.479 384.579C128.42 384.726 128.391 384.989 128.391 385.37C128.391 386.22 128.391 387.084 128.391 387.963C128.42 388.842 128.508 389.706 128.654 390.556C128.742 391.054 128.889 391.537 129.094 392.006C129.328 392.445 129.445 392.914 129.445 393.412C129.445 393.734 129.372 394.057 129.226 394.379C129.079 394.701 129.006 395.038 129.006 395.39C129.006 395.8 129.123 396.137 129.357 396.4C129.592 396.635 129.826 396.913 130.061 397.235C130.236 397.47 130.383 397.777 130.5 398.158C130.646 398.51 130.778 398.847 130.896 399.169C131.042 399.491 131.174 399.77 131.291 400.004C131.408 400.238 131.54 400.355 131.687 400.355C131.804 400.355 131.906 400.341 131.994 400.312C132.082 400.253 132.185 400.224 132.302 400.224C132.888 400.224 133.327 400.487 133.62 401.015C133.942 401.513 134.104 402.011 134.104 402.509C134.104 402.919 134.221 403.271 134.455 403.563C134.689 403.827 134.968 404.076 135.29 404.311C135.612 404.545 135.935 404.779 136.257 405.014C136.608 405.219 136.901 405.453 137.136 405.717C137.517 406.156 137.81 406.449 138.015 406.596C138.249 406.742 138.454 406.845 138.63 406.903C138.806 406.933 138.967 406.962 139.113 406.991C139.289 407.021 139.509 407.123 139.772 407.299C140.095 407.533 140.417 407.797 140.739 408.09C141.091 408.354 141.428 408.603 141.75 408.837C142.658 409.481 143.669 409.877 144.782 410.023C145.925 410.141 147.038 410.199 148.122 410.199C148.562 410.199 148.972 410.097 149.353 409.892C149.733 409.687 150.114 409.467 150.495 409.232C150.876 408.969 151.257 408.734 151.638 408.529C152.048 408.324 152.487 408.222 152.956 408.222C153.337 408.222 153.732 408.31 154.143 408.485C154.816 407.46 155.461 406.64 156.076 406.024C156.691 405.409 157.248 404.809 157.746 404.223C158.244 403.637 158.669 402.963 159.021 402.201C159.372 401.439 159.621 400.399 159.768 399.081C159.826 398.524 159.973 398.012 160.207 397.543C160.471 397.045 160.632 396.532 160.69 396.005C160.837 394.833 160.91 393.661 160.91 392.489C160.939 391.317 161.042 390.146 161.218 388.974C161.276 388.505 161.32 388.036 161.35 387.567C161.379 387.099 161.394 386.615 161.394 386.117ZM232.269 370.121C232.269 370.648 232.254 371.19 232.225 371.747C232.225 372.274 232.166 372.787 232.049 373.285C231.99 373.549 231.858 373.842 231.653 374.164C231.448 374.457 231.199 374.75 230.906 375.043C230.643 375.307 230.35 375.541 230.027 375.746C229.705 375.922 229.412 376.01 229.148 376.01C228.709 376.01 228.431 375.834 228.313 375.482C228.196 375.131 228.108 374.75 228.05 374.34C228.021 373.93 227.933 373.549 227.786 373.197C227.669 372.846 227.376 372.67 226.907 372.67C226.761 372.67 226.629 372.699 226.512 372.758C226.424 372.816 226.307 372.846 226.16 372.846C226.102 372.846 226.043 372.67 225.984 372.318C225.926 371.967 225.853 371.542 225.765 371.044C225.677 370.546 225.574 370.048 225.457 369.55C225.34 369.022 225.208 368.583 225.062 368.231C224.798 367.675 224.52 367.104 224.227 366.518C223.963 365.902 223.831 365.258 223.831 364.584C223.831 364.115 223.919 363.72 224.095 363.397C224.271 363.046 224.461 362.724 224.666 362.431C224.871 362.138 225.062 361.845 225.237 361.552C225.413 361.259 225.501 360.907 225.501 360.497C225.501 359.911 225.311 359.398 224.93 358.959C224.549 358.52 224.065 358.168 223.479 357.904C222.923 357.611 222.322 357.406 221.678 357.289C221.062 357.143 220.521 357.069 220.052 357.069C219.261 357.069 218.484 357.172 217.723 357.377C216.99 357.553 216.243 357.772 215.481 358.036C214.749 358.3 214.017 358.578 213.284 358.871C212.552 359.164 211.819 359.413 211.087 359.618C211.233 360.028 211.321 360.453 211.351 360.893C211.409 361.332 211.438 361.771 211.438 362.211C211.438 363.207 211.395 364.203 211.307 365.199C211.219 366.166 211.175 367.147 211.175 368.144C211.175 369.228 211.233 370.312 211.351 371.396C211.468 372.45 211.585 373.505 211.702 374.56C211.849 375.614 211.98 376.684 212.098 377.768C212.215 378.822 212.273 379.877 212.273 380.932C212.273 382.221 212.054 383.48 211.614 384.711C211.526 384.945 211.482 385.136 211.482 385.282C211.482 385.604 211.556 385.927 211.702 386.249C211.849 386.542 212.01 386.864 212.186 387.216C212.391 387.538 212.566 387.875 212.713 388.227C212.859 388.578 212.933 388.944 212.933 389.325C212.933 389.677 212.874 390.014 212.757 390.336C212.64 390.658 212.581 390.98 212.581 391.303C212.581 391.771 212.64 392.226 212.757 392.665C212.903 393.104 212.977 393.559 212.977 394.027C212.977 394.291 212.903 394.452 212.757 394.511C212.64 394.569 212.493 394.599 212.317 394.599C212.142 394.599 211.98 394.613 211.834 394.643C211.717 394.643 211.658 394.716 211.658 394.862C211.658 395.302 211.746 395.727 211.922 396.137C212.127 396.518 212.229 396.928 212.229 397.367C212.229 397.748 212.142 398.114 211.966 398.466C211.819 398.788 211.746 399.14 211.746 399.521C211.746 399.901 211.907 400.238 212.229 400.531C212.581 400.824 212.83 401.176 212.977 401.586C213.123 402.084 213.24 402.655 213.328 403.3C213.445 403.944 213.65 404.56 213.943 405.146C214.266 405.731 214.749 406.229 215.394 406.64C216.038 407.021 216.99 407.211 218.25 407.211H219.524C219.876 407.211 220.301 407.24 220.799 407.299C221.326 407.357 221.824 407.475 222.293 407.65C222.791 407.797 223.201 408.031 223.523 408.354C223.875 408.646 224.051 409.027 224.051 409.496C224.051 409.965 223.963 410.419 223.787 410.858C223.611 411.298 223.523 411.752 223.523 412.221C223.523 412.367 223.553 412.587 223.611 412.88C223.172 412.88 222.776 412.982 222.425 413.188C222.103 413.363 221.868 413.671 221.722 414.11C221.136 413.993 220.535 413.92 219.92 413.891C219.334 413.832 218.748 413.803 218.162 413.803C216.668 413.803 215.188 413.92 213.724 414.154C212.259 414.359 210.779 414.594 209.285 414.857C207.82 415.092 206.341 415.326 204.847 415.561C203.382 415.766 201.902 415.868 200.408 415.868C199.91 415.868 199.295 415.854 198.562 415.824C197.83 415.795 197.127 415.692 196.453 415.517C195.779 415.341 195.193 415.077 194.695 414.726C194.227 414.345 193.992 413.803 193.992 413.1C193.992 412.279 194.065 411.679 194.212 411.298C194.388 410.888 194.593 410.609 194.827 410.463C195.062 410.287 195.325 410.185 195.618 410.155C195.94 410.126 196.248 410.067 196.541 409.979C196.629 409.892 196.673 409.804 196.673 409.716C196.673 409.569 196.6 409.452 196.453 409.364C196.336 409.247 196.204 409.159 196.058 409.101C196.556 408.661 197.112 408.354 197.728 408.178C198.372 408.002 199.017 407.885 199.661 407.826C200.335 407.768 201.009 407.709 201.683 407.65C202.356 407.592 202.986 407.445 203.572 407.211C203.807 407.123 204.056 406.874 204.319 406.464C204.583 406.054 204.817 405.6 205.022 405.102C205.257 404.604 205.433 404.105 205.55 403.607C205.696 403.109 205.77 402.729 205.77 402.465V402.377C205.564 400.971 205.403 399.594 205.286 398.246C205.169 396.898 205.11 395.521 205.11 394.115C205.11 393.998 205.154 393.808 205.242 393.544C205.33 393.251 205.447 392.958 205.594 392.665C205.711 392.343 205.872 391.977 206.077 391.566C205.843 391.186 205.638 390.834 205.462 390.512C205.315 390.219 205.184 389.94 205.066 389.677C204.949 389.413 204.891 389.208 204.891 389.062C204.891 388.71 204.949 388.373 205.066 388.051C205.184 387.729 205.271 387.406 205.33 387.084C205.506 385.854 205.594 384.608 205.594 383.349C205.594 382.821 205.55 382.309 205.462 381.811C205.403 381.283 205.315 380.771 205.198 380.272C204.817 378.485 204.627 376.64 204.627 374.735C204.627 372.509 204.773 370.297 205.066 368.1C205.359 365.902 205.506 363.69 205.506 361.464C205.506 360.702 205.374 360.116 205.11 359.706C204.847 359.267 204.334 358.93 203.572 358.695C202.547 358.402 201.478 358.168 200.364 357.992C199.28 357.816 198.196 357.729 197.112 357.729C196.292 357.729 195.428 357.831 194.52 358.036C193.641 358.212 192.82 358.52 192.059 358.959C191.326 359.369 190.711 359.926 190.213 360.629C189.744 361.303 189.51 362.123 189.51 363.09C189.51 363.588 189.539 364.071 189.598 364.54C189.656 365.009 189.686 365.492 189.686 365.99C189.686 366.459 189.583 366.869 189.378 367.221C189.202 367.543 189.114 367.865 189.114 368.188C189.114 368.627 189.231 369.037 189.466 369.418C189.7 369.799 189.817 370.209 189.817 370.648C189.817 370.941 189.744 371.264 189.598 371.615C189.48 371.967 189.334 372.333 189.158 372.714C188.982 373.065 188.807 373.417 188.631 373.769C188.484 374.12 188.367 374.442 188.279 374.735C188.133 375.175 187.942 375.556 187.708 375.878C187.474 376.2 187.107 376.361 186.609 376.361C186.199 376.361 185.818 376.229 185.467 375.966C185.115 375.673 184.939 375.321 184.939 374.911C184.939 374.589 185.013 374.34 185.159 374.164C185.335 373.959 185.423 373.725 185.423 373.461C185.423 373.168 185.364 372.875 185.247 372.582C185.13 372.26 184.983 371.952 184.808 371.659C184.661 371.337 184.529 371.015 184.412 370.692C184.295 370.37 184.236 370.048 184.236 369.726C184.236 369.315 184.295 368.92 184.412 368.539C184.559 368.158 184.632 367.763 184.632 367.353C184.632 366.474 184.485 365.609 184.192 364.76C183.929 363.91 183.797 363.046 183.797 362.167C183.797 361.376 183.885 360.438 184.061 359.354C184.236 358.271 184.529 357.23 184.939 356.234C185.379 355.238 185.936 354.403 186.609 353.729C187.312 353.026 188.191 352.675 189.246 352.675C189.979 352.675 190.696 352.763 191.399 352.938C192.132 353.085 192.879 353.158 193.641 353.158C194.49 353.158 195.34 353.085 196.189 352.938C197.039 352.792 197.889 352.719 198.738 352.719C199.324 352.719 199.866 352.821 200.364 353.026C200.892 353.202 201.448 353.29 202.034 353.29C202.386 353.29 202.679 353.217 202.913 353.07C203.177 352.895 203.47 352.807 203.792 352.807C204.144 352.807 204.48 352.895 204.803 353.07C205.154 353.217 205.506 353.29 205.857 353.29C206.18 353.29 206.473 353.246 206.736 353.158C207.029 353.07 207.322 353.026 207.615 353.026C208.055 353.026 208.479 353.085 208.89 353.202C209.329 353.319 209.754 353.378 210.164 353.378L215.481 352.719C216.272 352.66 217.063 352.602 217.854 352.543C218.646 352.484 219.451 352.455 220.271 352.455C221.678 352.455 223.069 352.572 224.446 352.807C225.853 353.012 227.259 353.275 228.665 353.598V353.642C229.632 353.876 230.32 354.374 230.73 355.136C231.141 355.897 231.404 356.776 231.521 357.772C231.668 358.739 231.727 359.735 231.697 360.761C231.668 361.786 231.683 362.665 231.741 363.397C231.829 364.511 231.932 365.639 232.049 366.781C232.195 367.895 232.269 369.008 232.269 370.121ZM296.859 372.143C296.859 372.26 296.786 372.494 296.64 372.846C296.493 373.197 296.317 373.578 296.112 373.988C295.937 374.398 295.746 374.779 295.541 375.131C295.336 375.482 295.175 375.717 295.058 375.834L295.146 375.878C295.087 375.878 295.028 375.893 294.97 375.922H294.75C294.633 375.951 294.501 375.966 294.354 375.966C294.237 375.966 294.105 375.966 293.959 375.966L294.135 375.922C293.461 375.893 292.846 375.775 292.289 375.57C291.762 375.336 291.322 374.911 290.971 374.296C290.912 374.179 290.824 373.974 290.707 373.681C290.59 373.358 290.473 373.021 290.355 372.67C290.238 372.318 290.136 371.996 290.048 371.703C289.989 371.381 289.96 371.146 289.96 371C289.96 370.766 289.975 370.517 290.004 370.253C290.062 369.989 290.092 369.74 290.092 369.506C290.092 368.598 290.004 367.704 289.828 366.825C289.652 365.946 289.564 365.053 289.564 364.145C289.564 363.559 289.638 362.987 289.784 362.431C289.931 361.874 290.194 361.361 290.575 360.893H290.355C290.004 360.893 289.726 360.79 289.521 360.585C289.315 360.351 288.979 360.233 288.51 360.233C287.396 360.233 286.312 360.365 285.258 360.629C284.203 360.893 283.09 361.024 281.918 361.024C281.449 361.024 280.98 361.024 280.512 361.024C280.043 360.995 279.56 360.98 279.062 360.98C278.153 360.98 277.26 361.083 276.381 361.288C275.502 361.493 274.652 361.596 273.832 361.596C273.744 361.596 273.7 361.581 273.7 361.552C273.7 361.493 273.803 361.42 274.008 361.332C274.213 361.215 274.315 361.127 274.315 361.068C274.315 360.951 274.213 360.893 274.008 360.893C273.832 360.893 273.715 360.893 273.656 360.893C273.422 360.893 273.217 361.01 273.041 361.244C272.895 361.479 272.66 361.64 272.338 361.728C271.898 361.845 271.43 361.903 270.932 361.903C270.434 361.903 269.95 361.903 269.481 361.903C269.188 361.903 268.764 361.889 268.207 361.859C267.65 361.83 267.094 361.771 266.537 361.684C265.98 361.566 265.468 361.405 264.999 361.2C264.56 360.966 264.311 360.644 264.252 360.233C263.93 360.321 263.71 360.482 263.593 360.717C263.505 360.922 263.417 361.142 263.329 361.376C263.271 361.61 263.168 361.83 263.021 362.035C262.875 362.211 262.582 362.313 262.143 362.343C261.322 362.401 260.795 362.665 260.561 363.134C260.326 363.603 260.209 364.13 260.209 364.716C260.209 365.038 260.224 365.36 260.253 365.683C260.282 366.005 260.297 366.327 260.297 366.649C260.297 367.821 260.268 368.993 260.209 370.165C260.18 371.308 260.165 372.465 260.165 373.637C260.165 374.135 260.165 374.809 260.165 375.658C260.194 376.479 260.253 377.299 260.341 378.119C260.458 378.91 260.619 379.628 260.824 380.272C261.029 380.888 261.322 381.239 261.703 381.327C261.938 381.386 262.187 381.43 262.45 381.459C262.714 381.459 262.978 381.459 263.241 381.459C264.267 381.459 265.263 381.342 266.229 381.107C267.226 380.873 268.236 380.756 269.262 380.756C269.672 380.756 270.053 380.814 270.404 380.932C270.785 381.049 271.166 381.107 271.547 381.107C272.104 381.107 272.528 380.844 272.821 380.316C273.144 379.76 273.363 379.13 273.48 378.427C273.627 377.694 273.715 376.962 273.744 376.229C273.773 375.497 273.788 374.955 273.788 374.604C273.788 373.871 273.759 373.153 273.7 372.45C273.671 371.718 273.656 370.985 273.656 370.253H273.92C274.652 370.253 275.341 370.37 275.985 370.604C276.63 370.839 277.304 370.956 278.007 370.956C278.3 370.956 278.52 370.941 278.666 370.912C278.666 371.498 278.769 372.084 278.974 372.67C279.179 373.256 279.281 373.856 279.281 374.472C279.281 375.233 278.871 375.717 278.051 375.922C278.285 376.332 278.476 376.742 278.622 377.152C278.769 377.562 278.842 377.987 278.842 378.427C278.842 378.749 278.812 379.071 278.754 379.394C278.695 379.687 278.666 379.994 278.666 380.316C278.666 380.609 278.754 380.844 278.93 381.02C279.135 381.166 279.237 381.342 279.237 381.547C279.237 381.898 279.091 382.338 278.798 382.865C278.534 383.393 278.402 383.935 278.402 384.491C278.402 385.136 278.461 385.81 278.578 386.513C278.695 387.216 278.827 387.948 278.974 388.71C279.12 389.472 279.252 390.248 279.369 391.039C279.486 391.801 279.545 392.577 279.545 393.368C279.545 393.837 279.516 394.32 279.457 394.818C279.428 395.316 279.325 395.8 279.149 396.269C279.003 396.708 278.783 397.118 278.49 397.499C278.227 397.88 277.875 398.202 277.436 398.466C276.879 398.407 276.41 398.246 276.029 397.982C275.648 397.689 275.326 397.353 275.062 396.972C274.828 396.562 274.638 396.122 274.491 395.653C274.374 395.155 274.286 394.657 274.228 394.159C274.11 393.397 274.052 392.694 274.052 392.05C274.052 391.405 273.905 390.863 273.612 390.424C273.349 389.955 272.821 389.589 272.03 389.325C271.269 389.062 270.067 388.93 268.427 388.93C267.958 388.93 267.284 388.974 266.405 389.062C265.556 389.149 264.706 389.311 263.856 389.545C263.007 389.75 262.26 390.058 261.615 390.468C261 390.878 260.692 391.391 260.692 392.006C260.692 392.357 260.722 392.709 260.78 393.061C260.868 393.383 260.912 393.72 260.912 394.071C260.912 394.364 260.897 394.657 260.868 394.95C260.839 395.243 260.824 395.551 260.824 395.873C260.824 396.664 260.868 397.455 260.956 398.246C261.044 399.008 261.088 399.784 261.088 400.575C261.088 401.425 260.971 402.26 260.736 403.08C260.531 403.9 260.429 404.735 260.429 405.585C260.429 406.522 260.648 407.27 261.088 407.826C261.557 408.354 262.143 408.764 262.846 409.057C263.549 409.32 264.311 409.496 265.131 409.584C265.951 409.672 266.713 409.716 267.416 409.716C268.822 409.716 270.229 409.628 271.635 409.452C273.041 409.276 274.447 409.188 275.854 409.188C276.732 409.188 277.611 409.232 278.49 409.32C279.369 409.408 280.248 409.452 281.127 409.452C281.801 409.452 282.548 409.438 283.368 409.408C284.188 409.35 284.965 409.203 285.697 408.969C286.459 408.734 287.104 408.397 287.631 407.958C288.188 407.489 288.539 406.83 288.686 405.98C288.715 405.746 288.788 405.585 288.905 405.497C289.052 405.38 289.198 405.292 289.345 405.233C289.521 405.146 289.667 405.058 289.784 404.97C289.901 404.882 289.96 404.735 289.96 404.53C289.96 404.296 289.872 404.032 289.696 403.739C289.521 403.417 289.403 403.124 289.345 402.86C289.228 402.304 289.154 401.747 289.125 401.19C289.125 400.604 289.125 400.033 289.125 399.477C289.125 398.598 289.257 397.836 289.521 397.191C289.813 396.518 289.96 395.785 289.96 394.994C289.96 394.76 289.945 394.54 289.916 394.335C289.916 394.13 289.916 393.91 289.916 393.676C289.916 393.5 290.048 393.324 290.312 393.148C290.575 392.973 290.883 392.826 291.234 392.709C291.586 392.562 291.938 392.445 292.289 392.357C292.641 392.27 292.904 392.226 293.08 392.226C293.812 392.226 294.413 392.489 294.882 393.017C295.351 393.515 295.702 394.13 295.937 394.862C296.2 395.595 296.376 396.356 296.464 397.147C296.552 397.938 296.596 398.612 296.596 399.169C296.596 400.077 296.522 401.103 296.376 402.245C296.229 403.388 296.024 404.56 295.761 405.761C295.526 406.962 295.248 408.134 294.926 409.276C294.604 410.39 294.281 411.371 293.959 412.221C293.783 412.631 293.607 412.938 293.432 413.144C293.285 413.349 293.109 413.524 292.904 413.671C292.729 413.788 292.523 413.92 292.289 414.066C292.084 414.184 291.85 414.389 291.586 414.682C291.352 414.945 290.897 415.121 290.224 415.209C289.579 415.297 288.891 415.341 288.158 415.341C287.602 415.341 287.074 415.326 286.576 415.297C286.078 415.268 285.697 415.253 285.434 415.253C284.467 415.253 283.676 415.37 283.061 415.604C282.475 415.839 281.918 415.956 281.391 415.956C281.01 415.956 280.761 415.883 280.644 415.736C280.526 415.561 280.351 415.473 280.116 415.473C279.911 415.473 279.721 415.561 279.545 415.736C279.369 415.912 279.105 416 278.754 416C278.402 416 278.036 416 277.655 416C277.304 415.971 276.938 415.956 276.557 415.956C274.359 415.956 272.177 416.015 270.009 416.132C267.841 416.278 265.658 416.381 263.461 416.439C261.967 416.498 260.487 416.674 259.022 416.967C257.558 417.26 256.078 417.406 254.584 417.406C254.057 417.406 253.456 417.348 252.782 417.23C252.108 417.143 251.464 416.967 250.849 416.703C250.263 416.439 249.765 416.088 249.354 415.648C248.944 415.18 248.739 414.608 248.739 413.935C248.739 413.29 248.974 412.675 249.442 412.089C249.911 411.503 250.468 410.961 251.112 410.463C251.786 409.965 252.475 409.511 253.178 409.101C253.881 408.661 254.452 408.251 254.892 407.87C254.862 407.636 254.848 407.416 254.848 407.211C254.848 407.006 254.848 406.801 254.848 406.596C254.848 406.156 254.848 405.717 254.848 405.277C254.877 404.838 254.965 404.398 255.111 403.959C255.17 403.695 255.316 403.388 255.551 403.036C255.814 402.655 255.946 402.333 255.946 402.069C255.946 401.864 255.902 401.674 255.814 401.498C255.756 401.322 255.697 401.132 255.639 400.927C255.316 400.136 255.082 399.433 254.936 398.817C254.818 398.202 254.76 397.455 254.76 396.576C254.76 396.049 254.76 395.595 254.76 395.214C254.789 394.804 254.818 394.423 254.848 394.071C254.906 393.69 254.979 393.31 255.067 392.929C255.185 392.519 255.331 392.064 255.507 391.566C255.39 391.361 255.258 391.054 255.111 390.644C254.965 390.233 254.892 389.911 254.892 389.677L255.507 383.437C255.478 383.349 255.463 383.202 255.463 382.997C255.463 382.733 255.507 382.47 255.595 382.206C255.683 381.942 255.727 381.664 255.727 381.371C255.727 380.697 255.609 380.038 255.375 379.394C255.141 378.72 255.023 378.046 255.023 377.372C255.023 377.138 255.082 376.859 255.199 376.537C255.316 376.215 255.434 375.863 255.551 375.482C255.697 375.102 255.829 374.691 255.946 374.252C256.063 373.783 256.122 373.285 256.122 372.758C256.122 372.348 256.02 371.996 255.814 371.703C255.639 371.41 255.551 371.073 255.551 370.692C255.551 370.341 255.639 369.989 255.814 369.638C255.99 369.286 256.078 368.905 256.078 368.495C256.078 367.909 255.961 367.353 255.727 366.825C255.521 366.269 255.302 365.741 255.067 365.243C254.716 364.511 254.438 363.925 254.232 363.485C254.057 363.017 253.837 362.65 253.573 362.387C253.31 362.094 252.943 361.889 252.475 361.771C252.035 361.625 251.391 361.522 250.541 361.464C250.131 361.435 249.735 361.317 249.354 361.112C249.003 360.878 248.681 360.585 248.388 360.233C248.124 359.882 247.904 359.501 247.729 359.091C247.553 358.681 247.465 358.285 247.465 357.904C247.465 357.377 247.699 356.938 248.168 356.586C248.637 356.205 249.237 355.912 249.97 355.707C250.702 355.473 251.522 355.297 252.431 355.18C253.339 355.033 254.218 354.931 255.067 354.872C255.946 354.784 256.737 354.726 257.44 354.696C258.173 354.667 258.729 354.623 259.11 354.564C259.696 354.477 260.268 354.418 260.824 354.389C261.381 354.359 261.952 354.345 262.538 354.345C263.681 354.345 264.823 354.389 265.966 354.477C267.138 354.535 268.295 354.564 269.438 354.564C270.668 354.564 271.869 354.447 273.041 354.213C274.242 353.979 275.458 353.861 276.688 353.861C277.802 353.861 278.9 353.993 279.984 354.257C281.068 354.491 282.138 354.608 283.192 354.608C284.218 354.608 285.229 354.491 286.225 354.257C287.221 353.993 288.231 353.861 289.257 353.861C289.696 353.861 290.136 353.905 290.575 353.993C291.22 354.696 291.806 355.282 292.333 355.751C292.89 356.22 293.358 356.703 293.739 357.201C294.149 357.67 294.472 358.227 294.706 358.871C294.97 359.516 295.146 360.365 295.233 361.42C295.263 361.801 295.277 362.27 295.277 362.826C295.277 363.354 295.292 363.881 295.321 364.408C295.351 364.906 295.424 365.36 295.541 365.771C295.688 366.181 295.907 366.43 296.2 366.518C296.2 366.928 295.995 367.133 295.585 367.133C295.614 367.543 295.702 367.968 295.849 368.407C295.995 368.817 296.142 369.242 296.288 369.682C296.435 370.092 296.566 370.517 296.684 370.956C296.801 371.366 296.859 371.762 296.859 372.143ZM258.803 382.953C258.627 382.953 258.466 382.982 258.319 383.041C258.173 383.1 258.07 383.231 258.012 383.437C259.125 384.081 260.004 384.696 260.648 385.282C261.322 385.839 261.835 386.293 262.187 386.645C262.567 386.996 262.846 387.201 263.021 387.26C263.197 387.289 263.373 387.099 263.549 386.688C263.783 386.161 263.739 385.663 263.417 385.194C263.124 384.726 262.699 384.33 262.143 384.008C261.615 383.686 261.029 383.437 260.385 383.261C259.77 383.056 259.242 382.953 258.803 382.953ZM358.242 392.533C358.242 393.119 358.213 393.72 358.154 394.335C358.125 394.921 358.037 395.507 357.891 396.093C357.773 396.591 357.612 397.06 357.407 397.499C357.231 397.909 357.114 398.363 357.056 398.861C356.997 399.154 356.938 399.477 356.88 399.828C356.821 400.15 356.602 400.312 356.221 400.312L355.869 400.268C355.4 400.268 355.049 400.458 354.814 400.839C354.58 401.19 354.39 401.63 354.243 402.157C354.126 402.655 354.023 403.168 353.936 403.695C353.877 404.223 353.804 404.647 353.716 404.97C353.628 405.292 353.569 405.585 353.54 405.849C353.54 406.083 353.525 406.303 353.496 406.508C353.496 406.684 353.438 406.874 353.32 407.079C353.203 407.284 352.998 407.504 352.705 407.738C352.236 408.09 351.782 408.427 351.343 408.749C350.903 409.071 350.508 409.452 350.156 409.892C349.893 410.214 349.717 410.492 349.629 410.727C349.541 410.961 349.453 411.181 349.365 411.386C349.277 411.591 349.131 411.781 348.926 411.957C348.75 412.104 348.442 412.25 348.003 412.396C347.329 412.631 346.685 412.895 346.069 413.188C345.454 413.48 344.824 413.744 344.18 413.979C343.418 414.271 342.7 414.608 342.026 414.989C341.353 415.341 340.664 415.678 339.961 416C339.258 416.322 338.525 416.586 337.764 416.791C337.031 417.025 336.24 417.143 335.391 417.143C334.629 417.143 333.867 417.025 333.105 416.791C332.373 416.557 331.685 416.234 331.04 415.824C330.425 415.766 329.956 415.546 329.634 415.165C329.312 414.784 329.048 414.33 328.843 413.803C328.667 413.393 328.491 413.1 328.315 412.924C328.169 412.748 327.993 412.631 327.788 412.572C327.612 412.484 327.407 412.411 327.173 412.353C326.938 412.294 326.66 412.162 326.338 411.957C325.02 411.107 323.818 410.053 322.734 408.793C321.65 407.504 320.64 406.215 319.702 404.926C319.497 404.633 319.336 404.296 319.219 403.915C319.131 403.505 319.043 403.109 318.955 402.729C318.867 402.318 318.765 401.938 318.647 401.586C318.56 401.205 318.413 400.912 318.208 400.707C317.827 400.326 317.49 400.121 317.197 400.092C316.904 400.062 316.655 400.004 316.45 399.916C316.274 399.799 316.128 399.55 316.011 399.169C315.923 398.759 315.879 398.012 315.879 396.928C315.879 396.254 315.82 395.551 315.703 394.818C315.586 394.086 315.439 393.339 315.264 392.577C315.117 391.786 314.985 390.995 314.868 390.204C314.751 389.384 314.692 388.578 314.692 387.787C314.692 386.938 314.736 386.088 314.824 385.238C314.941 384.389 315.073 383.539 315.22 382.689C315.366 381.84 315.513 381.005 315.659 380.185C315.806 379.335 315.908 378.485 315.967 377.636C316.025 376.845 316.055 376.039 316.055 375.219C316.084 374.398 316.113 373.578 316.143 372.758C316.201 371.938 316.289 371.132 316.406 370.341C316.523 369.55 316.729 368.773 317.021 368.012C317.314 367.191 317.681 366.415 318.12 365.683C318.589 364.95 319.043 364.218 319.482 363.485C319.922 362.753 320.332 362.006 320.713 361.244C321.094 360.482 321.387 359.662 321.592 358.783C321.709 358.227 322.075 357.714 322.69 357.245C323.306 356.747 324.067 356.293 324.976 355.883C325.884 355.443 326.865 355.062 327.92 354.74C329.004 354.389 330.073 354.096 331.128 353.861C332.183 353.598 333.149 353.407 334.028 353.29C334.937 353.144 335.669 353.07 336.226 353.07C337.69 353.07 339.067 353.261 340.356 353.642C341.646 353.993 342.949 354.462 344.268 355.048C344.854 355.312 345.483 355.531 346.157 355.707C346.86 355.854 347.52 355.927 348.135 355.927C348.75 355.927 349.204 355.824 349.497 355.619C349.819 355.385 350.068 355.121 350.244 354.828C350.42 354.506 350.566 354.213 350.684 353.949C350.801 353.656 350.977 353.437 351.211 353.29L351.079 353.334C351.138 353.275 351.24 353.246 351.387 353.246C351.533 353.217 351.694 353.202 351.87 353.202C352.104 353.231 352.383 353.29 352.705 353.378C353.057 353.466 353.408 353.568 353.76 353.686C354.111 353.803 354.434 353.935 354.727 354.081C355.049 354.198 355.283 354.315 355.43 354.433C355.518 354.491 355.664 354.682 355.869 355.004C356.074 355.326 356.279 355.678 356.484 356.059C356.719 356.439 356.909 356.791 357.056 357.113C357.231 357.436 357.319 357.641 357.319 357.729C357.319 358.461 357.422 359.149 357.627 359.794C357.861 360.438 357.979 361.127 357.979 361.859C357.979 362.621 357.861 363.368 357.627 364.101C357.422 364.833 357.319 365.58 357.319 366.342C357.319 367.279 357.334 368.202 357.363 369.11C357.422 369.989 357.451 370.897 357.451 371.835C357.451 372.685 357.407 373.534 357.319 374.384C357.261 375.204 357.144 376.024 356.968 376.845C356.909 377.079 356.851 377.357 356.792 377.68C356.733 378.002 356.646 378.31 356.528 378.603C356.44 378.896 356.309 379.145 356.133 379.35C355.986 379.555 355.781 379.657 355.518 379.657C355.254 379.657 355.02 379.613 354.814 379.525C354.668 379.555 354.536 379.584 354.419 379.613C354.302 379.613 354.17 379.613 354.023 379.613C353.76 379.613 353.599 379.569 353.54 379.481C353.481 379.394 353.452 379.291 353.452 379.174C353.452 379.027 353.423 378.881 353.364 378.734C353.335 378.559 353.188 378.397 352.925 378.251C352.749 378.134 352.515 378.061 352.222 378.031C351.929 378.002 351.636 377.973 351.343 377.943C351.079 377.885 350.845 377.797 350.64 377.68C350.435 377.533 350.332 377.313 350.332 377.021C350.332 376.698 350.391 376.537 350.508 376.537C350.654 376.508 350.815 376.552 350.991 376.669C351.196 376.786 351.416 376.903 351.65 377.021C351.885 377.108 352.104 377.108 352.31 377.021C351.899 376.552 351.533 376.068 351.211 375.57C350.918 375.043 350.61 374.516 350.288 373.988C349.995 373.461 349.688 372.934 349.365 372.406C349.043 371.879 348.677 371.396 348.267 370.956C347.915 370.575 347.622 370.136 347.388 369.638C347.153 369.14 346.919 368.642 346.685 368.144C346.479 367.616 346.245 367.133 345.981 366.693C345.747 366.225 345.439 365.844 345.059 365.551C343.711 364.525 342.217 363.632 340.576 362.87C338.965 362.079 337.28 361.684 335.522 361.684C334.292 361.684 333.149 361.874 332.095 362.255C331.069 362.606 330.044 363.09 329.019 363.705C328.608 363.939 328.213 364.145 327.832 364.32C327.48 364.496 327.129 364.701 326.777 364.936C326.455 365.141 326.162 365.404 325.898 365.727C325.664 366.02 325.488 366.43 325.371 366.957C325.225 367.484 325.151 368.026 325.151 368.583C325.181 369.14 325.049 369.652 324.756 370.121C324.609 370.355 324.375 370.546 324.053 370.692C323.76 370.839 323.569 371.059 323.481 371.352C323.247 372.025 323.101 372.729 323.042 373.461C323.013 374.193 322.983 374.94 322.954 375.702C322.954 376.464 322.939 377.24 322.91 378.031C322.881 378.793 322.764 379.525 322.559 380.229C322.383 380.814 322.251 381.4 322.163 381.986C322.104 382.572 322.075 383.158 322.075 383.744C322.075 384.857 322.104 385.956 322.163 387.04C322.251 388.095 322.295 389.164 322.295 390.248C322.295 391.566 322.354 392.855 322.471 394.115C322.617 395.375 322.866 396.635 323.218 397.895C323.481 398.832 323.848 399.74 324.316 400.619C324.785 401.469 325.137 402.362 325.371 403.3C325.488 403.798 325.693 404.325 325.986 404.882C326.309 405.438 326.675 405.951 327.085 406.42C327.524 406.889 328.008 407.284 328.535 407.606C329.062 407.899 329.604 408.046 330.161 408.046C330.571 408.046 330.967 408.002 331.348 407.914C331.729 407.797 332.124 407.738 332.534 407.738C332.974 407.738 333.413 407.782 333.853 407.87C334.292 407.929 334.731 407.958 335.171 407.958C335.962 407.958 336.782 407.855 337.632 407.65C338.511 407.445 339.243 407.035 339.829 406.42C340.239 405.98 340.708 405.673 341.235 405.497C341.763 405.321 342.29 405.175 342.817 405.058C343.374 404.94 343.901 404.794 344.399 404.618C344.897 404.413 345.337 404.062 345.718 403.563C345.952 403.241 346.187 402.743 346.421 402.069C346.685 401.396 346.948 400.692 347.212 399.96C347.476 399.228 347.739 398.568 348.003 397.982C348.296 397.367 348.589 396.986 348.882 396.84C349.146 396.693 349.307 396.327 349.365 395.741C349.453 395.126 349.497 394.408 349.497 393.588V391.566C349.497 390.98 349.512 390.409 349.541 389.853C349.57 389.296 349.629 388.798 349.717 388.358C349.834 387.919 349.995 387.567 350.2 387.304C350.405 387.04 350.684 386.908 351.035 386.908C351.357 386.908 351.606 387.025 351.782 387.26C351.987 387.465 352.236 387.567 352.529 387.567C352.822 387.567 353.101 387.479 353.364 387.304C353.657 387.099 353.965 386.996 354.287 386.996C354.727 386.996 355.122 387.187 355.474 387.567C355.854 387.948 356.191 388.373 356.484 388.842C356.807 389.311 357.056 389.75 357.231 390.16C357.437 390.541 357.583 390.746 357.671 390.775C357.964 390.834 358.125 391.083 358.154 391.522C358.213 391.933 358.242 392.27 358.242 392.533ZM427.579 413.539C427.579 413.979 427.359 414.345 426.92 414.638C426.51 414.931 425.968 415.165 425.294 415.341C424.649 415.517 423.932 415.663 423.141 415.78C422.35 415.868 421.559 415.941 420.768 416C420.006 416.029 419.303 416.044 418.658 416.044C418.043 416.044 417.574 416.044 417.252 416.044C416.49 416.044 415.802 416.132 415.187 416.308C414.571 416.483 413.985 416.674 413.429 416.879C412.901 417.084 412.403 417.274 411.935 417.45C411.466 417.626 410.997 417.714 410.528 417.714C410.118 417.714 409.767 417.582 409.474 417.318C409.21 417.055 408.873 416.923 408.463 416.923C407.994 416.923 407.555 416.82 407.145 416.615C406.734 416.41 406.368 416.146 406.046 415.824C405.724 415.473 405.46 415.077 405.255 414.638C405.079 414.198 404.991 413.759 404.991 413.319C404.991 412.763 405.123 412.294 405.387 411.913C405.68 411.532 406.046 411.225 406.485 410.99C406.925 410.727 407.394 410.551 407.892 410.463C408.419 410.346 408.917 410.287 409.386 410.287C409.796 410.287 410.191 410.346 410.572 410.463C410.953 410.551 411.305 410.727 411.627 410.99C411.656 410.551 411.773 410.185 411.979 409.892C412.184 409.569 412.403 409.276 412.638 409.013C412.872 408.72 413.077 408.412 413.253 408.09C413.458 407.768 413.561 407.372 413.561 406.903C413.561 406.142 413.517 405.38 413.429 404.618C413.341 403.827 413.297 403.051 413.297 402.289C413.297 401.791 413.341 401.293 413.429 400.795C413.546 400.297 413.604 399.784 413.604 399.257C413.604 398.671 413.561 398.07 413.473 397.455C413.414 396.84 413.385 396.225 413.385 395.609C413.385 395.023 413.473 394.54 413.648 394.159C413.824 393.778 413.912 393.427 413.912 393.104C413.912 392.489 413.81 391.874 413.604 391.259C413.399 390.614 413.121 390.043 412.77 389.545C412.418 389.018 412.008 388.578 411.539 388.227C411.07 387.846 410.587 387.611 410.089 387.523C408.624 387.26 407.159 387.128 405.694 387.128C405.284 387.128 404.903 387.201 404.552 387.348C404.2 387.465 403.922 387.523 403.717 387.523C403.541 387.523 403.336 387.465 403.102 387.348C402.867 387.201 402.706 387.128 402.618 387.128C402.237 387.128 401.842 387.201 401.432 387.348C401.051 387.465 400.655 387.597 400.245 387.743C399.835 387.89 399.425 388.036 399.015 388.183C398.604 388.3 398.209 388.358 397.828 388.358C397.184 388.358 396.51 388.373 395.807 388.402C395.133 388.402 394.459 388.461 393.785 388.578C393.141 388.666 392.511 388.856 391.896 389.149C391.31 389.413 390.782 389.809 390.313 390.336V390.644C390.313 391.229 390.328 391.801 390.357 392.357C390.387 392.885 390.401 393.441 390.401 394.027C390.401 394.701 390.357 395.331 390.27 395.917C390.182 396.503 389.977 397.104 389.654 397.719C389.566 397.953 389.522 398.158 389.522 398.334C389.522 398.803 389.61 399.257 389.786 399.696C389.962 400.106 390.05 400.546 390.05 401.015C390.05 401.22 389.977 401.439 389.83 401.674C389.684 401.908 389.61 402.157 389.61 402.421C389.61 402.831 389.669 403.227 389.786 403.607C389.933 403.988 390.094 404.384 390.27 404.794C390.445 405.175 390.606 405.556 390.753 405.937C390.899 406.317 391.002 406.713 391.061 407.123C391.148 407.973 391.441 408.617 391.939 409.057C392.467 409.467 393.067 409.804 393.741 410.067C394.415 410.302 395.118 410.521 395.851 410.727C396.612 410.932 397.271 411.225 397.828 411.605C397.77 411.898 397.74 412.118 397.74 412.265C397.74 412.763 397.828 413.231 398.004 413.671C398.18 414.11 398.268 414.579 398.268 415.077C398.268 415.575 398.077 415.971 397.696 416.264C397.345 416.557 396.905 416.762 396.378 416.879C395.851 417.025 395.309 417.113 394.752 417.143C394.225 417.172 393.785 417.187 393.434 417.187C393.375 417.187 393.258 417.157 393.082 417.099C392.906 417.069 392.716 417.011 392.511 416.923C392.335 416.864 392.159 416.806 391.983 416.747C391.808 416.688 391.676 416.645 391.588 416.615C389.947 416.938 388.277 417.143 386.578 417.23C384.879 417.318 383.194 417.362 381.524 417.362C381.085 417.362 380.514 417.318 379.811 417.23C379.107 417.172 378.404 417.025 377.701 416.791C377.027 416.586 376.441 416.293 375.943 415.912C375.475 415.502 375.24 414.975 375.24 414.33C375.24 414.037 375.284 413.7 375.372 413.319C375.46 412.909 375.592 412.514 375.768 412.133C375.943 411.752 376.148 411.4 376.383 411.078C376.617 410.756 376.881 410.521 377.174 410.375C377.818 410.082 378.536 409.862 379.327 409.716C380.147 409.54 380.909 409.276 381.612 408.925C382.345 408.544 382.96 407.973 383.458 407.211C383.956 406.449 384.205 405.307 384.205 403.783C384.205 403.021 384.176 402.274 384.117 401.542C384.059 400.81 384.029 400.062 384.029 399.301C384.029 398.891 384.044 398.48 384.073 398.07C384.103 397.631 384.117 397.206 384.117 396.796C384.117 395.536 384.044 394.291 383.897 393.061C383.78 391.801 383.722 390.541 383.722 389.281C383.722 388.754 383.766 388.227 383.854 387.699C383.941 387.143 383.985 386.615 383.985 386.117C383.985 385.385 383.883 384.667 383.678 383.964C383.473 383.261 383.37 382.558 383.37 381.854C383.37 381.708 383.385 381.605 383.414 381.547C383.531 381.4 383.634 381.107 383.722 380.668C383.81 380.199 383.883 379.701 383.941 379.174C384.029 378.646 384.088 378.148 384.117 377.68C384.176 377.211 384.205 376.859 384.205 376.625C384.205 375.922 384.132 375.233 383.985 374.56C383.868 373.856 383.81 373.153 383.81 372.45C383.81 372.04 383.839 371.63 383.897 371.22C383.985 370.78 384.029 370.355 384.029 369.945C384.029 369.77 384 369.667 383.941 369.638C383.883 369.579 383.81 369.535 383.722 369.506C383.634 369.477 383.561 369.433 383.502 369.374C383.443 369.286 383.414 369.11 383.414 368.847C383.414 368.612 383.546 368.319 383.81 367.968C384.073 367.587 384.205 367.235 384.205 366.913C384.205 366.649 384.117 366.283 383.941 365.814C383.766 365.316 383.531 364.818 383.238 364.32C382.975 363.822 382.682 363.368 382.359 362.958C382.066 362.548 381.788 362.27 381.524 362.123C380.968 361.859 380.323 361.669 379.591 361.552C378.888 361.405 378.214 361.229 377.569 361.024C376.925 360.79 376.383 360.453 375.943 360.014C375.504 359.574 375.284 358.915 375.284 358.036C375.284 357.245 375.504 356.601 375.943 356.103C376.383 355.575 376.925 355.15 377.569 354.828C378.243 354.506 378.961 354.286 379.723 354.169C380.484 354.022 381.173 353.949 381.788 353.949C382.228 353.949 382.711 353.979 383.238 354.037C383.795 354.066 384.337 354.14 384.864 354.257C385.421 354.374 385.948 354.521 386.446 354.696C386.974 354.843 387.428 355.019 387.809 355.224C388.512 354.989 389.229 354.799 389.962 354.652C390.694 354.506 391.441 354.433 392.203 354.433C392.643 354.433 393.111 354.477 393.609 354.564C394.137 354.652 394.605 354.828 395.016 355.092C395.455 355.355 395.807 355.722 396.07 356.19C396.363 356.63 396.51 357.216 396.51 357.948C396.51 358.271 396.466 358.534 396.378 358.739C396.29 358.915 396.144 359.003 395.938 359.003C395.147 359.003 394.342 359.193 393.521 359.574C392.73 359.926 391.998 360.409 391.324 361.024C390.65 361.64 390.094 362.343 389.654 363.134C389.244 363.896 389.039 364.672 389.039 365.463C389.039 365.844 389.083 366.21 389.171 366.562C389.435 367.47 389.654 368.363 389.83 369.242C390.006 370.121 390.094 371.029 390.094 371.967C390.094 372.758 390.035 373.549 389.918 374.34C389.801 375.102 389.742 375.878 389.742 376.669C389.742 377.694 389.977 378.529 390.445 379.174C390.943 379.789 391.573 380.272 392.335 380.624C393.097 380.976 393.917 381.21 394.796 381.327C395.704 381.444 396.583 381.503 397.433 381.503C398.282 381.503 399.132 381.474 399.981 381.415C400.831 381.327 401.695 381.283 402.574 381.283C403.453 381.283 404.317 381.4 405.167 381.635C406.017 381.84 406.881 381.942 407.76 381.942C408.082 381.942 408.404 381.928 408.727 381.898C409.049 381.84 409.327 381.737 409.562 381.591C409.649 381.532 409.781 381.43 409.957 381.283C410.162 381.137 410.367 381.005 410.572 380.888C410.807 380.741 411.012 380.609 411.188 380.492C411.393 380.375 411.539 380.316 411.627 380.316C412.125 380.229 412.506 379.936 412.77 379.438C413.033 378.939 413.224 378.383 413.341 377.768C413.487 377.123 413.575 376.479 413.604 375.834C413.634 375.16 413.648 374.618 413.648 374.208C413.648 373.739 413.575 373.285 413.429 372.846C413.282 372.406 413.106 371.981 412.901 371.571C412.726 371.132 412.564 370.692 412.418 370.253C412.271 369.813 412.198 369.345 412.198 368.847C412.198 368.261 412.242 367.675 412.33 367.089C412.447 366.474 412.506 365.873 412.506 365.287C412.506 364.057 412.271 363.134 411.803 362.519C411.363 361.903 410.807 361.449 410.133 361.156C409.459 360.863 408.712 360.673 407.892 360.585C407.101 360.497 406.368 360.365 405.694 360.189C405.021 359.984 404.449 359.677 403.98 359.267C403.541 358.856 403.321 358.183 403.321 357.245C403.321 356.63 403.453 356.146 403.717 355.795C403.98 355.443 404.317 355.18 404.728 355.004C405.167 354.799 405.636 354.667 406.134 354.608C406.632 354.55 407.115 354.521 407.584 354.521C408.521 354.521 409.43 354.579 410.309 354.696C411.217 354.813 412.14 354.872 413.077 354.872C413.956 354.872 414.923 354.784 415.978 354.608C417.032 354.433 418.102 354.345 419.186 354.345C419.771 354.345 420.46 354.389 421.251 354.477C422.042 354.535 422.804 354.682 423.536 354.916C424.269 355.15 424.884 355.502 425.382 355.971C425.88 356.439 426.129 357.084 426.129 357.904C426.129 358.461 425.982 358.915 425.689 359.267C425.396 359.589 425.03 359.882 424.591 360.146C424.151 360.38 423.653 360.585 423.097 360.761C422.54 360.937 421.998 361.127 421.471 361.332C420.943 361.508 420.46 361.728 420.021 361.991C419.581 362.226 419.259 362.548 419.054 362.958C418.849 363.31 418.717 363.705 418.658 364.145C418.629 364.584 418.614 365.009 418.614 365.419C418.614 366.181 418.644 366.928 418.702 367.66C418.79 368.393 418.834 369.14 418.834 369.901C418.834 372.538 418.746 375.16 418.57 377.768C418.395 380.346 418.307 382.938 418.307 385.546C418.307 386.454 418.307 387.362 418.307 388.271C418.336 389.149 418.395 390.043 418.482 390.951C418.541 391.801 418.702 392.636 418.966 393.456C419.229 394.247 419.361 395.067 419.361 395.917C419.361 396.327 419.317 396.649 419.229 396.884C419.142 397.118 419.039 397.323 418.922 397.499C418.834 397.675 418.746 397.836 418.658 397.982C418.57 398.129 418.526 398.29 418.526 398.466C418.526 398.964 418.644 399.447 418.878 399.916C419.112 400.385 419.229 400.868 419.229 401.366C419.229 402.011 419.156 402.655 419.01 403.3C418.893 403.944 418.834 404.589 418.834 405.233C418.834 405.292 418.878 405.526 418.966 405.937C419.083 406.317 419.2 406.742 419.317 407.211C419.464 407.68 419.61 408.119 419.757 408.529C419.903 408.939 420.021 409.188 420.108 409.276C420.46 409.628 420.885 409.892 421.383 410.067C421.881 410.243 422.408 410.404 422.965 410.551C423.521 410.668 424.063 410.8 424.591 410.946C425.147 411.093 425.631 411.312 426.041 411.605C426.334 411.811 426.656 412.089 427.008 412.44C427.389 412.763 427.579 413.129 427.579 413.539ZM523.978 394.071C523.978 395.565 523.875 397.03 523.67 398.466C523.494 399.901 523.362 401.366 523.274 402.86C523.069 402.655 522.835 402.494 522.571 402.377C522.337 402.23 522.088 402.157 521.824 402.157C521.502 402.157 521.194 402.26 520.901 402.465C520.608 402.67 520.462 402.934 520.462 403.256C520.462 403.607 520.623 403.842 520.945 403.959C521.297 404.076 521.648 404.135 522 404.135C522.293 404.135 522.498 404.12 522.615 404.091C522.615 404.442 522.513 404.809 522.308 405.189C522.132 405.541 521.897 405.893 521.604 406.244C521.341 406.596 521.048 406.933 520.726 407.255C520.433 407.548 520.169 407.812 519.935 408.046C519.759 408.222 519.568 408.471 519.363 408.793C519.158 409.115 518.924 409.438 518.66 409.76C518.426 410.053 518.177 410.316 517.913 410.551C517.649 410.756 517.386 410.858 517.122 410.858C516.829 410.858 516.595 410.785 516.419 410.639C516.243 410.463 516.038 410.375 515.804 410.375C515.481 410.375 515.276 410.551 515.188 410.902C515.13 411.225 515.101 411.547 515.101 411.869V412.396C515.101 412.543 514.793 412.733 514.178 412.968C513.562 413.202 512.815 413.466 511.937 413.759C511.087 414.022 510.193 414.301 509.256 414.594C508.348 414.857 507.586 415.121 506.971 415.385C505.77 415.883 504.554 416.293 503.323 416.615C502.093 416.938 500.818 417.099 499.5 417.099C498.533 417.099 497.596 416.967 496.688 416.703C495.809 416.469 494.915 416.205 494.007 415.912C493.128 415.59 492.234 415.312 491.326 415.077C490.447 414.813 489.524 414.682 488.558 414.682C488.177 414.682 487.679 414.74 487.063 414.857C486.448 414.975 485.979 415.15 485.657 415.385C485.511 415.502 485.364 415.707 485.218 416C485.071 416.322 484.896 416.483 484.69 416.483C484.544 416.483 484.339 416.425 484.075 416.308C483.812 416.19 483.621 416.103 483.504 416.044C482.83 415.692 482.259 415.238 481.79 414.682C481.321 414.096 480.926 413.466 480.604 412.792C480.281 412.118 480.047 411.415 479.9 410.683C479.754 409.921 479.681 409.188 479.681 408.485C479.681 407.987 479.725 407.504 479.812 407.035C479.93 406.537 479.988 406.039 479.988 405.541C479.988 404.838 479.9 404.149 479.725 403.476C479.578 402.802 479.505 402.113 479.505 401.41C479.505 400.912 479.578 400.414 479.725 399.916C479.9 399.418 479.988 398.92 479.988 398.422C479.988 398.041 479.9 397.689 479.725 397.367C479.549 397.016 479.461 396.649 479.461 396.269C479.461 396.005 479.549 395.785 479.725 395.609C479.93 395.434 480.032 395.229 480.032 394.994C480.032 394.643 480.018 394.291 479.988 393.939C479.959 393.588 479.944 393.236 479.944 392.885C479.944 392.709 479.944 392.46 479.944 392.138C479.974 391.786 480.018 391.449 480.076 391.127C480.135 390.805 480.237 390.526 480.384 390.292C480.53 390.058 480.735 389.94 480.999 389.94C481.526 389.94 482.054 390.277 482.581 390.951C483.138 391.596 483.636 392.357 484.075 393.236C484.544 394.115 484.925 394.994 485.218 395.873C485.511 396.752 485.657 397.411 485.657 397.851C485.657 397.997 485.599 398.144 485.481 398.29C485.364 398.407 485.218 398.466 485.042 398.466C485.159 398.671 485.291 398.979 485.438 399.389C485.584 399.799 485.657 400.121 485.657 400.355C485.657 400.707 485.599 401.044 485.481 401.366C485.394 401.688 485.35 402.025 485.35 402.377C485.35 402.67 485.408 402.948 485.525 403.212C485.672 403.476 485.818 403.725 485.965 403.959C486.199 404.311 486.404 404.574 486.58 404.75C486.756 404.926 486.946 405.058 487.151 405.146C487.356 405.204 487.576 405.248 487.811 405.277C488.074 405.307 488.411 405.336 488.821 405.365C489.407 406.215 490.066 407.006 490.799 407.738C491.531 408.471 492.322 409.13 493.172 409.716C494.49 410.009 495.794 410.243 497.083 410.419C498.372 410.595 499.676 410.683 500.994 410.683C502.078 410.683 503.016 410.565 503.807 410.331C504.627 410.097 505.374 409.789 506.048 409.408C506.751 409.027 507.425 408.603 508.069 408.134C508.714 407.636 509.388 407.123 510.091 406.596C510.589 406.244 511.116 405.907 511.673 405.585C512.229 405.263 512.771 404.926 513.299 404.574C513.826 404.223 514.324 403.842 514.793 403.432C515.262 402.992 515.657 402.494 515.979 401.938C516.185 401.586 516.478 401.234 516.858 400.883C517.269 400.502 517.474 400.092 517.474 399.652C517.474 399.477 517.459 399.345 517.43 399.257C517.312 398.319 517.225 397.411 517.166 396.532C517.137 395.624 517.093 394.701 517.034 393.764C516.976 392.885 516.785 392.226 516.463 391.786C516.141 391.317 515.73 390.937 515.232 390.644C514.764 390.321 514.251 390.014 513.694 389.721C513.138 389.428 512.596 389.018 512.068 388.49C511.512 387.934 510.882 387.582 510.179 387.436C509.505 387.289 508.802 387.201 508.069 387.172C507.337 387.143 506.604 387.099 505.872 387.04C505.169 386.952 504.51 386.674 503.895 386.205C503.719 386.088 503.572 386.029 503.455 386.029C503.191 386.029 502.928 386.117 502.664 386.293C502.43 386.439 502.166 386.513 501.873 386.513C501.434 386.513 500.979 386.454 500.511 386.337C500.071 386.22 499.632 386.088 499.192 385.941C498.753 385.795 498.313 385.648 497.874 385.502C497.435 385.355 496.995 385.253 496.556 385.194C495.97 385.106 495.486 385.048 495.105 385.019C494.754 384.989 494.417 384.945 494.095 384.887C493.802 384.799 493.479 384.682 493.128 384.535C492.776 384.359 492.337 384.096 491.81 383.744C490.286 382.748 488.66 382.016 486.932 381.547C486.609 380.727 486.185 379.892 485.657 379.042C485.335 378.837 485.013 378.646 484.69 378.471C484.397 378.266 484.104 378.046 483.812 377.812C483.636 377.519 483.401 377.006 483.108 376.273C482.845 375.541 482.581 374.765 482.317 373.944C482.054 373.095 481.819 372.304 481.614 371.571C481.438 370.839 481.351 370.312 481.351 369.989C481.351 369.315 481.424 368.671 481.57 368.056C481.717 367.44 482.054 366.884 482.581 366.386C482.669 366.327 482.771 366.254 482.889 366.166C483.035 366.049 483.108 365.917 483.108 365.771C483.108 365.624 482.991 365.521 482.757 365.463C482.552 365.375 482.449 365.214 482.449 364.979C482.449 364.95 482.464 364.906 482.493 364.848C482.522 364.76 482.537 364.687 482.537 364.628C482.742 363.983 483.05 363.368 483.46 362.782C483.87 362.196 484.339 361.64 484.866 361.112C485.394 360.585 485.936 360.102 486.492 359.662C487.078 359.193 487.635 358.769 488.162 358.388C488.543 358.124 488.865 357.787 489.129 357.377C489.422 356.967 489.729 356.674 490.052 356.498C490.257 356.498 490.462 356.498 490.667 356.498C490.872 356.469 491.077 356.454 491.282 356.454C491.517 356.454 491.722 356.469 491.897 356.498C492.103 356.498 492.322 356.498 492.557 356.498C492.879 356.381 493.099 356.249 493.216 356.103C493.333 355.927 493.45 355.766 493.567 355.619C493.685 355.473 493.831 355.355 494.007 355.268C494.212 355.18 494.563 355.136 495.062 355.136C495.384 355.136 495.706 355.15 496.028 355.18C496.351 355.18 496.673 355.18 496.995 355.18C498.108 355.18 499.207 355.165 500.291 355.136C501.404 355.106 502.518 355.092 503.631 355.092C504.422 355.092 505.198 355.106 505.96 355.136C506.751 355.136 507.542 355.194 508.333 355.312C508.86 355.37 509.373 355.487 509.871 355.663C510.369 355.81 510.896 355.883 511.453 355.883C511.98 355.883 512.347 355.78 512.552 355.575C512.786 355.37 512.962 355.15 513.079 354.916C513.226 354.682 513.387 354.462 513.562 354.257C513.738 354.052 514.046 353.949 514.485 353.949C515.101 353.949 515.73 354.11 516.375 354.433C517.049 354.755 517.679 355.019 518.265 355.224L518.221 355.399C518.133 355.663 518.089 355.956 518.089 356.278C518.089 356.776 518.162 357.274 518.309 357.772C518.484 358.241 518.66 358.71 518.836 359.179C519.012 359.647 519.173 360.116 519.319 360.585C519.495 361.054 519.583 361.552 519.583 362.079C519.583 362.401 519.554 362.709 519.495 363.002C519.437 363.266 519.407 363.559 519.407 363.881C519.407 364.467 519.524 364.892 519.759 365.155C519.993 365.39 520.11 365.609 520.11 365.814C520.11 366.049 520.008 366.254 519.803 366.43C519.598 366.576 519.495 366.811 519.495 367.133C519.495 367.895 519.539 368.656 519.627 369.418C519.715 370.15 519.759 370.897 519.759 371.659C519.759 371.923 519.744 372.318 519.715 372.846C519.715 373.373 519.656 373.9 519.539 374.428C519.451 374.926 519.29 375.365 519.056 375.746C518.851 376.127 518.543 376.317 518.133 376.317C517.693 376.317 517.269 376.156 516.858 375.834C516.448 375.482 516.111 375.146 515.848 374.823C515.467 374.413 515.188 373.974 515.013 373.505C514.837 373.007 514.69 372.494 514.573 371.967C514.456 371.439 514.324 370.927 514.178 370.429C514.031 369.901 513.812 369.418 513.519 368.979C513.05 368.305 512.596 367.631 512.156 366.957C511.746 366.254 511.336 365.551 510.926 364.848C510.604 364.32 510.325 363.954 510.091 363.749C509.856 363.544 509.607 363.412 509.344 363.354C509.08 363.266 508.772 363.222 508.421 363.222C508.099 363.222 507.688 363.178 507.19 363.09C506.663 363.002 506.136 362.87 505.608 362.694C505.11 362.519 504.598 362.357 504.07 362.211C503.572 362.035 503.06 361.889 502.532 361.771C502.005 361.625 501.478 361.552 500.95 361.552C500.101 361.552 499.236 361.684 498.357 361.947C497.479 362.211 496.6 362.548 495.721 362.958C494.842 363.339 493.978 363.749 493.128 364.188C492.278 364.599 491.458 364.95 490.667 365.243C489.935 366.796 489.568 368.466 489.568 370.253C489.568 371.542 489.715 372.597 490.008 373.417C490.301 374.237 490.696 374.94 491.194 375.526C491.722 376.083 492.308 376.581 492.952 377.021C493.626 377.46 494.329 377.929 495.062 378.427C495.823 378.925 496.57 379.262 497.303 379.438C498.064 379.584 498.885 379.657 499.764 379.657C500.262 379.657 500.745 379.643 501.214 379.613C501.712 379.584 502.21 379.569 502.708 379.569C503.265 379.569 503.792 379.643 504.29 379.789C504.788 379.936 505.271 380.111 505.74 380.316C506.238 380.492 506.736 380.653 507.234 380.8C507.732 380.946 508.245 381.02 508.772 381.02C509.271 381.02 509.739 380.99 510.179 380.932C510.647 380.873 511.116 380.844 511.585 380.844C511.995 380.844 512.361 380.946 512.684 381.151C513.006 381.327 513.328 381.547 513.65 381.811C513.973 382.045 514.295 382.265 514.617 382.47C514.969 382.675 515.35 382.792 515.76 382.821C516.346 383.114 516.829 383.378 517.21 383.612C517.591 383.847 517.928 384.096 518.221 384.359C518.543 384.623 518.836 384.945 519.1 385.326C519.393 385.707 519.715 386.176 520.066 386.732C520.389 387.289 520.813 387.772 521.341 388.183C521.868 388.593 522.293 389.091 522.615 389.677C522.732 389.882 522.806 390.131 522.835 390.424C522.864 390.688 522.908 390.951 522.967 391.215C523.025 391.449 523.113 391.669 523.23 391.874C523.377 392.05 523.597 392.152 523.89 392.182C523.919 392.504 523.934 392.826 523.934 393.148C523.963 393.441 523.978 393.749 523.978 394.071ZM588.393 386.425C588.393 387.04 588.334 387.641 588.217 388.227C588.1 388.783 587.968 389.354 587.821 389.94C587.675 390.497 587.543 391.068 587.426 391.654C587.309 392.24 587.25 392.826 587.25 393.412C587.25 393.646 587.265 393.881 587.294 394.115C587.353 394.32 587.382 394.54 587.382 394.774C587.382 395.36 587.279 395.917 587.074 396.444C586.898 396.972 586.679 397.484 586.415 397.982C586.181 398.422 586.034 398.876 585.976 399.345C585.946 399.813 585.917 400.282 585.888 400.751C585.888 401.22 585.844 401.688 585.756 402.157C585.668 402.626 585.492 403.065 585.229 403.476C585.17 403.769 585.082 404.208 584.965 404.794C584.877 405.351 584.76 405.746 584.613 405.98C584.584 406.039 584.496 406.083 584.35 406.112C584.203 406.142 584.042 406.171 583.866 406.2C583.69 406.229 583.5 406.288 583.295 406.376C583.09 406.464 582.914 406.596 582.768 406.771C582.621 406.918 582.504 407.123 582.416 407.387C582.328 407.65 582.226 407.914 582.108 408.178C581.991 408.441 581.845 408.676 581.669 408.881C581.522 409.057 581.317 409.145 581.054 409.145C580.79 409.145 580.556 409.101 580.351 409.013C580.146 408.896 579.94 408.793 579.735 408.705C579.53 408.588 579.325 408.5 579.12 408.441C578.915 408.383 578.666 408.397 578.373 408.485C578.461 408.544 578.49 408.69 578.461 408.925C578.432 409.13 578.432 409.35 578.461 409.584C578.52 409.818 578.651 410.038 578.856 410.243C579.062 410.448 579.428 410.551 579.955 410.551C580.219 410.551 580.468 410.536 580.702 410.507C580.966 410.478 581.229 410.434 581.493 410.375C581.259 411.02 580.98 411.532 580.658 411.913C580.336 412.265 579.97 412.587 579.56 412.88C579.179 413.144 578.769 413.422 578.329 413.715C577.919 413.979 577.509 414.33 577.099 414.77C576.601 415.268 576.117 415.575 575.648 415.692C575.209 415.81 574.682 415.956 574.066 416.132C573.363 416.337 572.865 416.586 572.572 416.879C572.279 417.172 571.957 417.45 571.605 417.714C571.254 417.978 570.771 418.197 570.155 418.373C569.569 418.578 568.632 418.681 567.343 418.681C566.171 418.681 564.999 418.637 563.827 418.549C562.685 418.461 561.542 418.344 560.399 418.197C559.872 418.139 559.433 418.036 559.081 417.89C558.759 417.772 558.451 417.626 558.158 417.45C557.865 417.304 557.572 417.143 557.279 416.967C556.986 416.791 556.62 416.615 556.181 416.439C555.946 416.352 555.668 416.234 555.346 416.088C555.023 415.971 554.687 415.839 554.335 415.692C553.983 415.546 553.661 415.399 553.368 415.253C553.075 415.077 552.841 414.916 552.665 414.77C552.46 414.594 552.313 414.403 552.226 414.198C552.167 413.964 552.108 413.729 552.05 413.495C551.991 413.231 551.918 412.997 551.83 412.792C551.771 412.558 551.64 412.367 551.435 412.221C550.995 412.162 550.57 412.089 550.16 412.001C549.75 411.884 549.34 411.752 548.93 411.605C548.812 411.283 548.695 410.976 548.578 410.683C548.49 410.36 548.388 410.038 548.271 409.716C547.89 409.306 547.523 408.969 547.172 408.705C546.82 408.412 546.513 408.119 546.249 407.826C545.985 407.533 545.751 407.196 545.546 406.815C545.37 406.405 545.253 405.878 545.194 405.233C545.106 404.472 544.931 403.739 544.667 403.036C544.403 402.304 544.125 401.586 543.832 400.883C543.568 400.18 543.319 399.462 543.085 398.729C542.88 397.997 542.777 397.25 542.777 396.488C542.777 395.697 542.938 394.892 543.261 394.071C542.411 392.87 541.884 391.566 541.679 390.16C541.474 388.725 541.371 387.289 541.371 385.854C541.371 385.385 541.371 384.931 541.371 384.491C541.4 384.022 541.415 383.568 541.415 383.129C541.415 382.631 541.298 382.25 541.063 381.986C540.858 381.693 540.756 381.342 540.756 380.932C540.756 380.287 540.844 379.657 541.02 379.042C541.225 378.427 541.356 377.797 541.415 377.152C541.034 377.094 540.785 376.947 540.668 376.713L540.756 376.537C540.961 376.186 541.122 375.863 541.239 375.57C541.386 375.277 541.488 374.999 541.547 374.735C541.605 374.472 541.664 374.193 541.723 373.9C541.781 373.607 541.854 373.271 541.942 372.89C542.177 371.688 542.47 370.517 542.821 369.374C543.202 368.231 543.568 367.074 543.92 365.902C544.301 364.555 544.77 363.368 545.326 362.343C545.883 361.317 546.747 360.365 547.919 359.486C548.417 359.076 548.871 358.637 549.281 358.168C549.691 357.699 549.984 357.143 550.16 356.498C550.307 356.381 550.468 356.308 550.644 356.278C550.819 356.249 550.995 356.234 551.171 356.234H551.522C551.728 356.234 551.918 356.22 552.094 356.19C552.299 356.132 552.489 356.029 552.665 355.883C553.104 355.473 553.485 355.18 553.808 355.004C554.159 354.828 554.628 354.74 555.214 354.74C555.624 354.74 556.02 354.784 556.4 354.872C556.781 354.931 557.177 355.004 557.587 355.092C557.733 354.945 557.938 354.755 558.202 354.521C558.495 354.257 558.744 354.081 558.949 353.993V354.125C558.949 354.242 558.964 354.359 558.993 354.477C559.052 354.564 559.154 354.608 559.301 354.608C559.682 354.608 560.048 354.521 560.399 354.345C560.751 354.169 561.117 354.052 561.498 353.993C562.348 353.847 563.197 353.627 564.047 353.334C564.896 353.012 565.761 352.851 566.64 352.851C567.577 352.851 568.573 352.909 569.628 353.026C570.712 353.144 571.767 353.363 572.792 353.686C573.817 354.008 574.77 354.462 575.648 355.048C576.527 355.604 577.23 356.337 577.758 357.245C577.992 357.655 578.227 357.978 578.461 358.212C578.695 358.417 578.93 358.607 579.164 358.783C579.398 358.93 579.633 359.091 579.867 359.267C580.102 359.413 580.351 359.633 580.614 359.926C581.171 360.57 581.61 361.273 581.933 362.035C582.284 362.768 582.768 363.427 583.383 364.013C584.145 364.716 584.701 365.565 585.053 366.562C585.434 367.558 585.624 368.568 585.624 369.594C585.624 369.916 585.58 370.238 585.492 370.561C585.404 370.883 585.36 371.22 585.36 371.571C585.36 371.864 585.419 372.172 585.536 372.494C585.683 372.816 585.844 373.153 586.02 373.505C586.195 373.856 586.356 374.223 586.503 374.604C586.649 374.984 586.752 375.351 586.811 375.702C586.898 376.493 587.03 377.27 587.206 378.031C587.382 378.764 587.558 379.525 587.733 380.316C587.968 381.312 588.144 382.323 588.261 383.349C588.378 384.374 588.422 385.399 588.393 386.425ZM581.229 386.117C581.229 384.477 581.083 382.851 580.79 381.239C580.526 379.628 580.263 378.017 579.999 376.405C579.882 375.819 579.691 375.263 579.428 374.735C579.193 374.208 578.988 373.666 578.812 373.109C578.461 372.055 578.124 371 577.802 369.945C577.479 368.891 577.157 367.836 576.835 366.781C576.63 366.137 576.22 365.58 575.604 365.111C574.989 364.613 574.271 364.203 573.451 363.881C572.631 363.529 571.737 363.251 570.771 363.046C569.833 362.812 568.925 362.636 568.046 362.519C567.167 362.372 566.347 362.284 565.585 362.255C564.853 362.196 564.296 362.167 563.915 362.167L564.486 362.123L564.003 362.167C563.358 362.167 562.714 362.138 562.069 362.079C561.454 362.021 560.824 361.991 560.18 361.991C559.652 361.991 559.125 362.035 558.598 362.123C558.1 362.182 557.646 362.372 557.235 362.694C556.269 363.456 555.36 364.174 554.511 364.848C553.661 365.492 552.958 366.386 552.401 367.528C552.226 367.909 552.035 368.188 551.83 368.363C551.625 368.51 551.42 368.671 551.215 368.847C551.039 368.993 550.878 369.169 550.731 369.374C550.585 369.579 550.482 369.916 550.424 370.385C550.277 371.234 550.102 372.084 549.896 372.934C549.721 373.754 549.633 374.589 549.633 375.438C549.633 376.347 549.545 377.255 549.369 378.163C549.223 379.042 548.974 379.906 548.622 380.756C548.534 380.99 548.446 381.21 548.358 381.415C548.3 381.62 548.271 381.84 548.271 382.074C548.271 382.514 548.373 382.895 548.578 383.217C548.783 383.51 548.886 383.773 548.886 384.008C548.886 384.125 548.842 384.198 548.754 384.228C548.695 384.228 548.622 384.257 548.534 384.315C548.476 384.345 548.402 384.433 548.314 384.579C548.256 384.726 548.227 384.989 548.227 385.37C548.227 386.22 548.227 387.084 548.227 387.963C548.256 388.842 548.344 389.706 548.49 390.556C548.578 391.054 548.725 391.537 548.93 392.006C549.164 392.445 549.281 392.914 549.281 393.412C549.281 393.734 549.208 394.057 549.062 394.379C548.915 394.701 548.842 395.038 548.842 395.39C548.842 395.8 548.959 396.137 549.193 396.4C549.428 396.635 549.662 396.913 549.896 397.235C550.072 397.47 550.219 397.777 550.336 398.158C550.482 398.51 550.614 398.847 550.731 399.169C550.878 399.491 551.01 399.77 551.127 400.004C551.244 400.238 551.376 400.355 551.522 400.355C551.64 400.355 551.742 400.341 551.83 400.312C551.918 400.253 552.021 400.224 552.138 400.224C552.724 400.224 553.163 400.487 553.456 401.015C553.778 401.513 553.939 402.011 553.939 402.509C553.939 402.919 554.057 403.271 554.291 403.563C554.525 403.827 554.804 404.076 555.126 404.311C555.448 404.545 555.771 404.779 556.093 405.014C556.444 405.219 556.737 405.453 556.972 405.717C557.353 406.156 557.646 406.449 557.851 406.596C558.085 406.742 558.29 406.845 558.466 406.903C558.642 406.933 558.803 406.962 558.949 406.991C559.125 407.021 559.345 407.123 559.608 407.299C559.931 407.533 560.253 407.797 560.575 408.09C560.927 408.354 561.264 408.603 561.586 408.837C562.494 409.481 563.505 409.877 564.618 410.023C565.761 410.141 566.874 410.199 567.958 410.199C568.397 410.199 568.808 410.097 569.188 409.892C569.569 409.687 569.95 409.467 570.331 409.232C570.712 408.969 571.093 408.734 571.474 408.529C571.884 408.324 572.323 408.222 572.792 408.222C573.173 408.222 573.568 408.31 573.979 408.485C574.652 407.46 575.297 406.64 575.912 406.024C576.527 405.409 577.084 404.809 577.582 404.223C578.08 403.637 578.505 402.963 578.856 402.201C579.208 401.439 579.457 400.399 579.604 399.081C579.662 398.524 579.809 398.012 580.043 397.543C580.307 397.045 580.468 396.532 580.526 396.005C580.673 394.833 580.746 393.661 580.746 392.489C580.775 391.317 580.878 390.146 581.054 388.974C581.112 388.505 581.156 388.036 581.186 387.567C581.215 387.099 581.229 386.615 581.229 386.117ZM620.991 358.783C620.64 358.871 620.332 359.003 620.068 359.179C619.805 359.325 619.541 359.516 619.277 359.75C619.014 359.955 618.721 360.204 618.398 360.497C618.105 360.79 617.739 361.127 617.3 361.508C617.212 362.094 617.168 362.68 617.168 363.266C617.168 363.881 617.241 364.379 617.388 364.76C617.534 365.111 617.695 365.419 617.871 365.683C618.047 365.917 618.208 366.151 618.354 366.386C618.501 366.591 618.574 366.84 618.574 367.133C618.574 367.777 618.75 368.451 619.102 369.154C619.482 369.857 619.937 370.546 620.464 371.22C620.991 371.864 621.533 372.494 622.09 373.109C622.646 373.695 623.13 374.208 623.54 374.647H623.672C623.936 374.647 624.229 374.53 624.551 374.296C624.902 374.062 625.239 373.783 625.562 373.461C625.884 373.109 626.147 372.743 626.353 372.362C626.587 371.981 626.704 371.659 626.704 371.396C626.704 371.103 626.807 370.839 627.012 370.604C627.217 370.341 627.451 370.092 627.715 369.857C628.008 369.594 628.286 369.359 628.55 369.154C628.843 368.92 629.062 368.671 629.209 368.407V366.518C629.385 366.342 629.546 366.181 629.692 366.034C629.868 365.888 630.015 365.727 630.132 365.551C630.249 365.375 630.337 365.17 630.396 364.936C630.454 364.701 630.483 364.394 630.483 364.013C630.483 363.778 630.469 363.573 630.439 363.397C630.439 363.192 630.439 362.973 630.439 362.738C630.645 362.416 630.85 362.108 631.055 361.815C631.26 361.493 631.479 361.186 631.714 360.893C631.978 360.277 631.978 359.838 631.714 359.574C631.479 359.311 631.113 359.135 630.615 359.047C630.146 358.959 629.634 358.915 629.077 358.915C628.521 358.886 628.066 358.827 627.715 358.739L627.188 358.651C626.836 358.593 626.44 358.49 626.001 358.344C625.562 358.168 625.181 357.743 624.858 357.069C624.507 356.366 624.39 355.751 624.507 355.224C624.653 354.667 624.917 354.198 625.298 353.817C625.679 353.437 626.133 353.129 626.66 352.895C627.188 352.66 627.671 352.484 628.11 352.367C628.872 352.133 629.619 351.928 630.352 351.752C631.113 351.576 631.875 351.488 632.637 351.488C633.516 351.488 634.38 351.576 635.229 351.752C636.108 351.898 636.987 351.972 637.866 351.972C638.804 351.972 639.727 351.884 640.635 351.708C641.572 351.532 642.51 351.444 643.447 351.444C644.062 351.444 644.648 351.488 645.205 351.576C645.762 351.664 646.26 351.825 646.699 352.06C647.168 352.265 647.563 352.587 647.886 353.026C648.208 353.437 648.442 353.964 648.589 354.608C648.735 355.282 648.765 355.824 648.677 356.234C648.589 356.645 648.589 356.967 648.677 357.201C648.267 358.256 647.71 359.018 647.007 359.486C646.333 359.955 645.601 360.292 644.81 360.497C644.019 360.702 643.213 360.878 642.393 361.024C641.572 361.142 640.84 361.391 640.195 361.771C639.551 362.152 639.009 362.753 638.569 363.573C638.159 364.394 637.954 365.58 637.954 367.133C637.544 367.396 637.119 367.763 636.68 368.231C636.24 368.671 635.815 369.154 635.405 369.682C635.024 370.209 634.658 370.751 634.307 371.308C633.984 371.835 633.735 372.318 633.56 372.758C633.882 372.875 634.058 373.051 634.087 373.285C633.853 373.695 633.662 374.135 633.516 374.604C633.369 375.072 633.179 375.512 632.944 375.922C632.769 376.244 632.578 376.493 632.373 376.669C632.197 376.815 632.021 376.991 631.846 377.196C631.699 377.372 631.567 377.621 631.45 377.943C631.362 378.236 631.318 378.676 631.318 379.262C631.318 379.525 631.289 379.789 631.23 380.053C631.172 380.287 631.011 380.507 630.747 380.712C630.015 381.298 629.414 382.045 628.945 382.953C628.506 383.832 628.154 384.784 627.891 385.81C627.656 386.806 627.495 387.831 627.407 388.886C627.319 389.911 627.275 390.863 627.275 391.742C627.275 392.533 627.393 393.31 627.627 394.071C627.891 394.833 628.022 395.609 628.022 396.4C628.022 397.191 627.964 397.997 627.847 398.817C627.729 399.608 627.671 400.399 627.671 401.19C627.671 401.601 627.7 401.996 627.759 402.377C627.817 402.729 627.847 403.095 627.847 403.476C627.847 403.886 627.832 404.223 627.803 404.486C627.803 404.75 627.803 404.984 627.803 405.189C627.803 405.512 627.876 405.79 628.022 406.024C628.169 406.259 628.491 406.669 628.989 407.255C629.106 407.401 629.268 407.636 629.473 407.958C629.707 408.28 629.912 408.441 630.088 408.441C630.586 408.441 631.069 408.383 631.538 408.266C632.036 408.119 632.52 407.973 632.988 407.826C633.486 407.65 633.97 407.504 634.438 407.387C634.937 407.24 635.449 407.167 635.977 407.167C636.035 407.167 636.196 407.196 636.46 407.255C636.753 407.313 637.061 407.387 637.383 407.475C637.734 407.562 638.071 407.65 638.394 407.738C638.745 407.797 639.023 407.841 639.229 407.87C639.346 408.075 639.448 408.28 639.536 408.485C639.653 408.661 639.756 408.866 639.844 409.101C640.107 409.218 640.4 409.35 640.723 409.496C641.074 409.613 641.396 409.774 641.689 409.979C641.982 410.155 642.231 410.375 642.437 410.639C642.642 410.902 642.744 411.21 642.744 411.562C642.744 412.001 642.671 412.44 642.524 412.88C642.407 413.29 642.349 413.715 642.349 414.154C642.349 414.535 642.012 414.828 641.338 415.033C640.664 415.238 639.888 415.399 639.009 415.517C638.13 415.604 637.28 415.663 636.46 415.692C635.64 415.722 635.083 415.736 634.79 415.736C632.798 415.736 630.82 415.663 628.857 415.517C626.924 415.37 624.961 415.297 622.969 415.297C621.709 415.297 620.464 415.414 619.233 415.648C618.032 415.854 616.816 415.956 615.586 415.956C614.912 415.956 614.253 415.868 613.608 415.692C612.964 415.517 612.305 415.429 611.631 415.429C610.869 415.429 610.122 415.561 609.39 415.824C608.687 416.059 607.954 416.176 607.192 416.176C606.753 416.176 606.357 416.117 606.006 416C606.006 415.619 605.918 415.268 605.742 414.945C605.596 414.623 605.42 414.315 605.215 414.022C605.039 413.7 604.863 413.378 604.688 413.056C604.541 412.733 604.468 412.382 604.468 412.001C604.468 411.298 604.775 410.727 605.391 410.287C606.035 409.818 606.841 409.452 607.808 409.188C608.774 408.896 609.844 408.676 611.016 408.529C612.217 408.383 613.389 408.28 614.531 408.222C615.674 408.134 616.714 408.075 617.651 408.046C618.589 408.017 619.307 407.958 619.805 407.87C620.098 407.313 620.332 406.625 620.508 405.805C620.684 404.984 620.815 404.105 620.903 403.168C621.021 402.201 621.094 401.205 621.123 400.18C621.152 399.154 621.167 398.144 621.167 397.147C621.167 395.8 621.182 394.555 621.211 393.412C621.24 392.24 621.211 391.127 621.123 390.072C621.064 389.018 620.933 388.007 620.728 387.04C620.552 386.044 620.244 385.048 619.805 384.052C619.424 383.202 618.911 382.455 618.267 381.811C617.651 381.166 617.109 380.448 616.641 379.657C616.143 378.808 615.747 377.914 615.454 376.977C615.161 376.01 614.766 375.087 614.268 374.208C613.242 372.362 612.29 370.502 611.411 368.627C610.562 366.723 609.8 364.76 609.126 362.738C608.716 362.68 608.408 362.577 608.203 362.431C607.998 362.284 607.822 362.123 607.676 361.947C607.559 361.771 607.427 361.596 607.28 361.42C607.134 361.215 606.914 361.039 606.621 360.893C606.27 360.717 605.771 360.585 605.127 360.497C604.482 360.38 603.779 360.277 603.018 360.189C602.256 360.072 601.479 359.94 600.688 359.794C599.927 359.647 599.224 359.472 598.579 359.267C597.935 359.032 597.407 358.739 596.997 358.388C596.587 358.007 596.382 357.538 596.382 356.981C596.382 356.366 596.587 355.751 596.997 355.136C597.407 354.521 597.817 353.993 598.228 353.554C598.696 353.056 599.312 352.66 600.073 352.367C600.864 352.074 601.685 351.854 602.534 351.708C603.413 351.532 604.292 351.43 605.171 351.4C606.079 351.342 606.899 351.312 607.632 351.312H608.555L611.367 351.356C612.129 351.356 612.847 351.43 613.521 351.576C614.194 351.693 614.854 351.84 615.498 352.016C616.143 352.191 616.787 352.382 617.432 352.587C618.105 352.763 618.823 352.909 619.585 353.026C620.142 353.056 620.596 353.334 620.947 353.861C621.299 354.359 621.533 354.931 621.65 355.575C621.768 356.22 621.768 356.85 621.65 357.465C621.562 358.08 621.343 358.52 620.991 358.783Z" fill="#00AA5A"/>
<path d="M361.821 217.729C404.983 188.126 427.786 170.446 470.751 135.468C427.043 166.429 403.245 184.512 361.821 217.729Z" fill="white"/>
<path d="M177.766 123.448C224.566 165.376 248.76 185.958 291.959 220.837C248.651 181.414 223.554 160.277 177.766 123.448Z" fill="white"/>
</svg>
