<svg width="50" height="50" viewBox="0 0 50 50" fill="none" xmlns="http://www.w3.org/2000/svg">
<path d="M25 2C12.317 2 2 12.317 2 25C2 37.683 12.317 48 25 48C37.683 48 48 37.683 48 25C48 12.317 37.683 2 25 2ZM36.237 20.524C36.247 20.76 36.253 21 36.253 21.241C36.253 28.559 30.68 37 20.491 37C17.363 37 14.45 36.083 12 34.511C12.433 34.563 12.872 34.588 13.321 34.588C15.917 34.588 18.306 33.704 20.2 32.218C17.776 32.174 15.732 30.569 15.025 28.371C15.364 28.436 15.711 28.471 16.069 28.471C16.574 28.471 17.064 28.404 17.527 28.276C14.995 27.765 13.086 25.529 13.086 22.844C13.086 22.82 13.086 22.797 13.086 22.774C13.833 23.189 14.686 23.439 15.595 23.468C14.107 22.473 13.131 20.779 13.131 18.857C13.131 17.842 13.403 16.891 13.88 16.071C16.613 19.422 20.695 21.627 25.298 21.859C25.203 21.453 25.153 21.031 25.153 20.597C25.153 17.538 27.633 15.058 30.693 15.058C32.286 15.058 33.725 15.73 34.735 16.807C35.996 16.559 37.183 16.098 38.253 15.464C37.84 16.756 36.961 17.842 35.816 18.528C36.938 18.392 38.004 18.096 38.999 17.655C38.257 18.766 37.318 19.743 36.237 20.524Z" fill="white"/>
</svg>
